<?xml version="1.0" encoding="UTF-8" standalone="no"?>
<!-- Created with Inkscape (http://www.inkscape.org/) -->

<svg
   xmlns:dc="http://purl.org/dc/elements/1.1/"
   xmlns:cc="http://creativecommons.org/ns#"
   xmlns:rdf="http://www.w3.org/1999/02/22-rdf-syntax-ns#"
   xmlns:svg="http://www.w3.org/2000/svg"
   xmlns="http://www.w3.org/2000/svg"
   xmlns:sodipodi="http://sodipodi.sourceforge.net/DTD/sodipodi-0.dtd"
   xmlns:inkscape="http://www.inkscape.org/namespaces/inkscape"
   width="340.12961"
   height="340.12961"
   id="svg2"
   version="1.1"
   inkscape:version="0.48.3.1 r9886"
   sodipodi:docname="obsolete-work.svg">
  <defs
     id="defs4">
    <inkscape:perspective
       sodipodi:type="inkscape:persp3d"
       inkscape:vp_x="0 : 526.18109 : 1"
       inkscape:vp_y="0 : 1000 : 0"
       inkscape:vp_z="744.09448 : 526.18109 : 1"
       inkscape:persp3d-origin="372.04724 : 350.78739 : 1"
       id="perspective10" />
    <inkscape:perspective
       id="perspective3619"
       inkscape:persp3d-origin="0.5 : 0.33333333 : 1"
       inkscape:vp_z="1 : 0.5 : 1"
       inkscape:vp_y="0 : 1000 : 0"
       inkscape:vp_x="0 : 0.5 : 1"
       sodipodi:type="inkscape:persp3d" />
    <inkscape:perspective
       id="perspective3643"
       inkscape:persp3d-origin="0.5 : 0.33333333 : 1"
       inkscape:vp_z="1 : 0.5 : 1"
       inkscape:vp_y="0 : 1000 : 0"
       inkscape:vp_x="0 : 0.5 : 1"
       sodipodi:type="inkscape:persp3d" />
    <inkscape:perspective
       id="perspective3680"
       inkscape:persp3d-origin="0.5 : 0.33333333 : 1"
       inkscape:vp_z="1 : 0.5 : 1"
       inkscape:vp_y="0 : 1000 : 0"
       inkscape:vp_x="0 : 0.5 : 1"
       sodipodi:type="inkscape:persp3d" />
    <filter
       id="filter3829"
       inkscape:label="Rubber stamp"
       x="0"
       y="0"
       width="1"
       height="1"
       inkscape:menu="Overlays"
       inkscape:menu-tooltip="Random whiteouts inside"
       color-interpolation-filters="sRGB">
      <feTurbulence
         id="feTurbulence3831"
         result="result1"
         baseFrequency="0.064"
         numOctaves="4"
         type="fractalNoise" />
      <feGaussianBlur
         id="feGaussianBlur3833"
         in="SourceAlpha"
         stdDeviation="4.9"
         result="result91" />
      <feComposite
         id="feComposite3835"
         in2="result91"
         operator="out"
         in="SourceAlpha"
         result="result92" />
      <feComposite
         id="feComposite3837"
         in2="result1" />
      <feColorMatrix
         id="feColorMatrix3839"
         result="result1"
         values="1 0 0 0 0 0 1 0 0 0 0 0 1 0 0 0 0 0 20 -9" />
      <feComposite
         id="feComposite3841"
         in2="result1"
         result="result1"
         operator="in"
         in="SourceGraphic" />
      <feTurbulence
         id="feTurbulence3843"
         baseFrequency="0.032"
         numOctaves="1"
         result="result92" />
      <feDisplacementMap
         id="feDisplacementMap3845"
         in2="result92"
         scale="4.1"
         yChannelSelector="G"
         xChannelSelector="R"
         in="result1" />
    </filter>
    <filter
       id="filter5051"
       inkscape:label="Roughen"
       inkscape:menu="ABCs"
       inkscape:menu-tooltip="Small-scale roughening to edges and content"
       color-interpolation-filters="sRGB">
      <feTurbulence
         id="feTurbulence5053"
         numOctaves="3"
         seed="0"
         type="turbulence"
         baseFrequency="0.04"
         result="result91" />
      <feDisplacementMap
         id="feDisplacementMap5055"
         in2="result91"
         scale="6.6"
         yChannelSelector="G"
         xChannelSelector="R"
         in="SourceGraphic" />
    </filter>
    <filter
       id="filter5057"
       inkscape:label="Roughen"
       inkscape:menu="ABCs"
       inkscape:menu-tooltip="Small-scale roughening to edges and content"
       color-interpolation-filters="sRGB">
      <feTurbulence
         id="feTurbulence5059"
         numOctaves="3"
         seed="0"
         type="turbulence"
         baseFrequency="0.04"
         result="result91" />
      <feDisplacementMap
         id="feDisplacementMap5061"
         in2="result91"
         scale="6.6"
         yChannelSelector="G"
         xChannelSelector="R"
         in="SourceGraphic" />
    </filter>
    <filter
       id="filter5063"
       inkscape:label="Roughen"
       inkscape:menu="ABCs"
       inkscape:menu-tooltip="Small-scale roughening to edges and content"
       color-interpolation-filters="sRGB">
      <feTurbulence
         id="feTurbulence5065"
         numOctaves="3"
         seed="0"
         type="turbulence"
         baseFrequency="0.04"
         result="result91" />
      <feDisplacementMap
         id="feDisplacementMap5067"
         in2="result91"
         scale="6.6"
         yChannelSelector="G"
         xChannelSelector="R"
         in="SourceGraphic" />
    </filter>
    <filter
       id="filter5069"
       inkscape:label="Roughen"
       inkscape:menu="ABCs"
       inkscape:menu-tooltip="Small-scale roughening to edges and content"
       color-interpolation-filters="sRGB">
      <feTurbulence
         id="feTurbulence5071"
         numOctaves="3"
         seed="0"
         type="turbulence"
         baseFrequency="0.04"
         result="result91" />
      <feDisplacementMap
         id="feDisplacementMap5073"
         in2="result91"
         scale="6.6"
         yChannelSelector="G"
         xChannelSelector="R"
         in="SourceGraphic" />
    </filter>
    <filter
       id="filter5075"
       inkscape:label="Roughen"
       inkscape:menu="ABCs"
       inkscape:menu-tooltip="Small-scale roughening to edges and content"
       color-interpolation-filters="sRGB">
      <feTurbulence
         id="feTurbulence5077"
         numOctaves="3"
         seed="0"
         type="turbulence"
         baseFrequency="0.04"
         result="result91" />
      <feDisplacementMap
         id="feDisplacementMap5079"
         in2="result91"
         scale="6.6"
         yChannelSelector="G"
         xChannelSelector="R"
         in="SourceGraphic" />
    </filter>
    <filter
       id="filter5081"
       inkscape:label="Roughen"
       inkscape:menu="ABCs"
       inkscape:menu-tooltip="Small-scale roughening to edges and content"
       color-interpolation-filters="sRGB">
      <feTurbulence
         id="feTurbulence5083"
         numOctaves="3"
         seed="0"
         type="turbulence"
         baseFrequency="0.04"
         result="result91" />
      <feDisplacementMap
         id="feDisplacementMap5085"
         in2="result91"
         scale="6.6"
         yChannelSelector="G"
         xChannelSelector="R"
         in="SourceGraphic" />
    </filter>
    <filter
       id="filter5087"
       inkscape:label="Roughen"
       inkscape:menu="ABCs"
       inkscape:menu-tooltip="Small-scale roughening to edges and content"
       color-interpolation-filters="sRGB">
      <feTurbulence
         id="feTurbulence5089"
         numOctaves="3"
         seed="0"
         type="turbulence"
         baseFrequency="0.04"
         result="result91" />
      <feDisplacementMap
         id="feDisplacementMap5091"
         in2="result91"
         scale="6.6"
         yChannelSelector="G"
         xChannelSelector="R"
         in="SourceGraphic" />
    </filter>
    <filter
       id="filter5093"
       inkscape:label="Roughen"
       inkscape:menu="ABCs"
       inkscape:menu-tooltip="Small-scale roughening to edges and content"
       color-interpolation-filters="sRGB">
      <feTurbulence
         id="feTurbulence5095"
         numOctaves="3"
         seed="0"
         type="turbulence"
         baseFrequency="0.04"
         result="result91" />
      <feDisplacementMap
         id="feDisplacementMap5097"
         in2="result91"
         scale="6.6"
         yChannelSelector="G"
         xChannelSelector="R"
         in="SourceGraphic" />
    </filter>
    <filter
       id="filter5099"
       inkscape:label="Roughen"
       inkscape:menu="ABCs"
       inkscape:menu-tooltip="Small-scale roughening to edges and content"
       color-interpolation-filters="sRGB">
      <feTurbulence
         id="feTurbulence5101"
         numOctaves="3"
         seed="0"
         type="turbulence"
         baseFrequency="0.04"
         result="result91" />
      <feDisplacementMap
         id="feDisplacementMap5103"
         in2="result91"
         scale="6.6"
         yChannelSelector="G"
         xChannelSelector="R"
         in="SourceGraphic" />
    </filter>
    <filter
       id="filter5105"
       inkscape:label="Roughen"
       inkscape:menu="ABCs"
       inkscape:menu-tooltip="Small-scale roughening to edges and content"
       color-interpolation-filters="sRGB">
      <feTurbulence
         id="feTurbulence5107"
         numOctaves="3"
         seed="0"
         type="turbulence"
         baseFrequency="0.04"
         result="result91" />
      <feDisplacementMap
         id="feDisplacementMap5109"
         in2="result91"
         scale="6.6"
         yChannelSelector="G"
         xChannelSelector="R"
         in="SourceGraphic" />
    </filter>
    <filter
       id="filter5111"
       inkscape:label="Roughen"
       inkscape:menu="ABCs"
       inkscape:menu-tooltip="Small-scale roughening to edges and content"
       color-interpolation-filters="sRGB">
      <feTurbulence
         id="feTurbulence5113"
         numOctaves="3"
         seed="0"
         type="turbulence"
         baseFrequency="0.04"
         result="result91" />
      <feDisplacementMap
         id="feDisplacementMap5115"
         in2="result91"
         scale="6.6"
         yChannelSelector="G"
         xChannelSelector="R"
         in="SourceGraphic" />
    </filter>
    <filter
       id="filter5117"
       inkscape:label="Roughen"
       inkscape:menu="ABCs"
       inkscape:menu-tooltip="Small-scale roughening to edges and content"
       color-interpolation-filters="sRGB">
      <feTurbulence
         id="feTurbulence5119"
         numOctaves="3"
         seed="0"
         type="turbulence"
         baseFrequency="0.04"
         result="result91" />
      <feDisplacementMap
         id="feDisplacementMap5121"
         in2="result91"
         scale="6.6"
         yChannelSelector="G"
         xChannelSelector="R"
         in="SourceGraphic" />
    </filter>
  </defs>
  <sodipodi:namedview
     id="base"
     pagecolor="#ffffff"
     bordercolor="#666666"
     borderopacity="1.0"
     inkscape:pageopacity="0.0"
     inkscape:pageshadow="2"
     inkscape:zoom="1.979899"
     inkscape:cx="271.84202"
     inkscape:cy="177.07252"
     inkscape:document-units="px"
     inkscape:current-layer="layer1"
     showgrid="false"
     inkscape:window-width="1920"
     inkscape:window-height="986"
     inkscape:window-x="0"
     inkscape:window-y="31"
     inkscape:window-maximized="1"
     fit-margin-top="0"
     fit-margin-left="0"
     fit-margin-right="0"
     fit-margin-bottom="0" />
  <metadata
     id="metadata7">
    <rdf:RDF>
      <cc:Work
         rdf:about="">
        <dc:format>image/svg+xml</dc:format>
        <dc:type
           rdf:resource="http://purl.org/dc/dcmitype/StillImage" />
        <dc:title></dc:title>
      </cc:Work>
    </rdf:RDF>
  </metadata>
  <g
     inkscape:label="Layer 1"
     inkscape:groupmode="layer"
     id="layer1"
     transform="translate(14.303867,12.046041)">
    <path
       style="font-size:40px;font-style:normal;font-variant:normal;font-weight:bold;font-stretch:normal;text-indent:0;text-align:start;text-decoration:none;line-height:normal;letter-spacing:normal;word-spacing:normal;text-transform:none;direction:ltr;block-progression:tb;writing-mode:lr-tb;text-anchor:start;baseline-shift:baseline;opacity:0.4;color:#000000;fill:#c5c5c5;fill-opacity:1;fill-rule:nonzero;stroke:none;stroke-width:4.93456125;marker:none;visibility:visible;display:inline;overflow:visible;filter:url(#filter5117);enable-background:accumulate;font-family:LMSans17;-inkscape-font-specification:LMSans17 Bold"
       d="m 75.78125,208.625 c -3.467524,0.3636 -6.668567,1.76232 -9.15625,4.25 -6.641224,6.64122 -5.555039,18.47621 2.4375,26.46875 8.066088,8.06609 19.81857,8.93142 26.375,2.375 6.55644,-6.55644 5.69108,-18.30891 -2.375,-26.375 C 88.04767,210.32892 81.560456,208.019 75.78125,208.625 z m 2.25,8.21875 c 2.444823,0.26985 5.281154,1.59365 8.15625,4.46875 3.005657,3.00565 4.563525,6.16881 5,8.8125 0.436475,2.64369 -0.186758,4.65551 -1.4375,5.90625 -1.268815,1.26882 -3.262022,1.88116 -5.90625,1.4375 -2.644228,-0.44366 -5.822848,-2.01035 -8.8125,-5 -5.750193,-5.7502 -5.184485,-11.44051 -2.71875,-13.90625 1.232871,-1.23287 3.273927,-1.9886 5.71875,-1.71875 z"
       id="path2821"
       inkscape:connector-curvature="0" />
    <path
       style="font-size:40px;font-style:normal;font-variant:normal;font-weight:bold;font-stretch:normal;text-indent:0;text-align:start;text-decoration:none;line-height:normal;letter-spacing:normal;word-spacing:normal;text-transform:none;direction:ltr;block-progression:tb;writing-mode:lr-tb;text-anchor:start;baseline-shift:baseline;opacity:0.4;color:#000000;fill:#c5c5c5;fill-opacity:1;fill-rule:nonzero;stroke:none;stroke-width:4.93456125;marker:none;visibility:visible;display:inline;overflow:visible;filter:url(#filter5111);enable-background:accumulate;font-family:LMSans17;-inkscape-font-specification:LMSans17 Bold"
       d="m 99.46875,185.65625 c -3.202557,0.39629 -6.534542,2.03454 -9.28125,4.78125 l -7.78125,7.78125 a 2.4675274,2.4675274 0 0 0 0,3.5 L 106.625,225.9375 a 2.4675274,2.4675274 0 0 0 3.5,0 l 8.6875,-8.6875 c 5.51508,-5.51508 6.21944,-13.65556 1.625,-18.25 -2.5065,-2.5065 -6.3121,-3.27358 -10.25,-2.34375 0.51726,-3.83944 -0.7196,-6.81337 -2.25,-8.34375 -2.20341,-2.2034 -5.26619,-3.05254 -8.46875,-2.65625 z m 1.375,8.4375 c 0.41394,0.0831 0.71863,0.24988 0.9375,0.46875 0.85292,0.85292 1.60679,3.83071 -2.28125,7.71875 l -1.9375,1.9375 -5.125,-5.125 2.25,-2.28125 c 1.497725,-1.49772 3.192727,-2.37139 4.53125,-2.65625 0.669262,-0.14243 1.21106,-0.14556 1.625,-0.0625 z m 10.03125,10.3125 c 1.51371,-0.20727 2.6425,0.1425 3.28125,0.78125 1.12408,1.12408 1.41073,4.40176 -1.78125,7.59375 l -3.125,3.15625 -6.09375,-6.09375 2.90625,-2.90625 c 1.52343,-1.52343 3.29879,-2.32398 4.8125,-2.53125 z"
       id="path2823"
       inkscape:connector-curvature="0" />
    <path
       style="font-size:40px;font-style:normal;font-variant:normal;font-weight:bold;font-stretch:normal;text-indent:0;text-align:start;text-decoration:none;line-height:normal;letter-spacing:normal;word-spacing:normal;text-transform:none;direction:ltr;block-progression:tb;writing-mode:lr-tb;text-anchor:start;baseline-shift:baseline;opacity:0.4;color:#000000;fill:#c5c5c5;fill-opacity:1;fill-rule:nonzero;stroke:none;stroke-width:4.93456125;marker:none;visibility:visible;display:inline;overflow:visible;filter:url(#filter5105);enable-background:accumulate;font-family:LMSans17;-inkscape-font-specification:LMSans17 Bold"
       d="m 119.21875,164.625 a 2.4675274,2.4675274 0 0 0 -0.5,0.0937 c -2.58641,0.66508 -5.71844,1.81219 -8.875,4.96875 -5.35768,5.35768 -5.09857,13.21395 -0.71875,17.59375 1.6626,1.6626 4.25607,3.1039 7.71875,3.3125 3.59331,0.21646 6.22132,-1.2703 8.6875,-2.75 l 0,0.0313 c 0.48208,-0.2826 1.16334,-0.67502 1.75,-1 0.58666,-0.32498 1.35215,-0.70336 1,-0.5625 a 2.4675274,2.4675274 0 0 0 0.0937,-0.0313 c 1.77945,-0.77566 3.35438,-0.20812 4.375,0.8125 1.2936,1.2936 1.92119,3.64131 -0.21875,5.78125 -0.85294,0.85294 -3.45348,3.26033 -8.1875,3.46875 a 2.4675274,2.4675274 0 0 0 -1.90625,3.875 l 2.25,3.25 a 2.4675274,2.4675274 0 0 0 2.40625,1.03125 c 5.66641,-0.8779 9.51512,-3.9526 11.34375,-5.78125 5.20902,-5.20902 4.92491,-13.3251 0.15625,-18.09375 -1.74463,-1.74465 -4.55478,-3.4139 -8.3125,-3.625 a 2.4675274,2.4675274 0 0 0 -0.0313,0 c -1.76861,-0.0823 -3.37376,0.17506 -4.875,0.75 -1.50124,0.57494 -2.90156,1.38912 -4.71875,2.4375 -2.04904,1.21553 -2.64254,1.5662 -3.84375,1.4375 -0.94747,-0.12846 -1.30791,-0.27666 -1.84375,-0.8125 -0.95705,-0.95706 -1.60806,-3.07944 0.65625,-5.34375 1.29738,-1.29738 2.85483,-2.50932 6.09375,-2.625 a 2.4675274,2.4675274 0 0 0 1.9375,-3.875 l -2.3125,-3.28125 a 2.4675274,2.4675274 0 0 0 -2.125,-1.0625 z"
       id="path2825"
       inkscape:connector-curvature="0" />
    <path
       style="font-size:40px;font-style:normal;font-variant:normal;font-weight:bold;font-stretch:normal;text-indent:0;text-align:start;text-decoration:none;line-height:normal;letter-spacing:normal;word-spacing:normal;text-transform:none;direction:ltr;block-progression:tb;writing-mode:lr-tb;text-anchor:start;baseline-shift:baseline;opacity:0.4;color:#000000;fill:#c5c5c5;fill-opacity:1;fill-rule:nonzero;stroke:none;stroke-width:4.93456125;marker:none;visibility:visible;display:inline;overflow:visible;filter:url(#filter5099);enable-background:accumulate;font-family:LMSans17;-inkscape-font-specification:LMSans17 Bold"
       d="m 143.59375,144.34375 c -4.77996,-0.43688 -9.40184,0.96434 -12.71875,4.28125 -6.64123,6.64123 -5.52379,18.44497 2.46875,26.4375 8.06608,8.06609 19.81857,8.93144 26.375,2.375 6.55643,-6.55643 5.69109,-18.30891 -2.375,-26.375 -4.01186,-4.01186 -8.97004,-6.28187 -13.75,-6.71875 z m -1.3125,8.25 c 2.44483,0.26985 5.31241,1.56241 8.1875,4.4375 3.00566,3.00566 4.56353,6.16881 5,8.8125 0.43647,2.64369 -0.18677,4.65552 -1.4375,5.90625 -1.26882,1.26882 -3.29327,1.88116 -5.9375,1.4375 -2.64423,-0.44366 -5.82285,-2.01035 -8.8125,-5 -5.75019,-5.75019 -5.1845,-11.40925 -2.71875,-13.875 1.23286,-1.23286 3.27392,-1.9886 5.71875,-1.71875 z"
       id="path2827"
       inkscape:connector-curvature="0" />
    <path
       style="font-size:40px;font-style:normal;font-variant:normal;font-weight:bold;font-stretch:normal;text-indent:0;text-align:start;text-decoration:none;line-height:normal;letter-spacing:normal;word-spacing:normal;text-transform:none;direction:ltr;block-progression:tb;writing-mode:lr-tb;text-anchor:start;baseline-shift:baseline;opacity:0.4;color:#000000;fill:#c5c5c5;fill-opacity:1;fill-rule:nonzero;stroke:none;stroke-width:4.93456125;marker:none;visibility:visible;display:inline;overflow:visible;filter:url(#filter5093);enable-background:accumulate;font-family:LMSans17;-inkscape-font-specification:LMSans17 Bold"
       d="m 151.03125,130.34375 a 2.4675274,2.4675274 0 0 0 -1.46875,0.71875 L 146.625,134 a 2.4675274,2.4675274 0 0 0 0,3.46875 l 24.21875,24.21875 a 2.4675274,2.4675274 0 0 0 3.5,0 l 13.28125,-13.28125 -1.75,-1.75 1.75,-1.75 -2.25,-2.25 a 2.4675274,2.4675274 0 0 0 -3.5,0 l -7.25,7.25 c -0.51568,0.51567 -0.89699,0.9595 -1.21875,1.28125 l -0.0937,0.125 -20.25,-20.25 a 2.4675274,2.4675274 0 0 0 -2.03125,-0.71875 z"
       id="path2829"
       inkscape:connector-curvature="0" />
    <path
       style="font-size:40px;font-style:normal;font-variant:normal;font-weight:bold;font-stretch:normal;text-indent:0;text-align:start;text-decoration:none;line-height:normal;letter-spacing:normal;word-spacing:normal;text-transform:none;direction:ltr;block-progression:tb;writing-mode:lr-tb;text-anchor:start;baseline-shift:baseline;opacity:0.4;color:#000000;fill:#c5c5c5;fill-opacity:1;fill-rule:nonzero;stroke:none;stroke-width:4.93456125;marker:none;visibility:visible;display:inline;overflow:visible;filter:url(#filter5087);enable-background:accumulate;font-family:LMSans17;-inkscape-font-specification:LMSans17 Bold"
       d="m 180.59375,100.90625 a 2.4675274,2.4675274 0 0 0 -1.4375,0.71875 L 164.5,116.28125 a 2.4675274,2.4675274 0 0 0 0,3.46875 l 24.125,24.15625 a 2.4675274,2.4675274 0 0 0 3.5,0 l 15.125,-15.09375 -1.75,-1.75 1.75,-1.75 -2.4375,-2.40625 a 2.4675274,2.4675274 0 0 0 -3.46875,0 l -7.46875,7.53125 a 2.4675274,2.4675274 0 0 0 -0.0313,0.0313 l -2.875,2.9375 -5.625,-5.65625 9.0625,-9.0625 a 2.4675274,2.4675274 0 0 0 0,-3.5 l -2.125,-2.125 a 2.4675274,2.4675274 0 0 0 -3.5,0 l -9.0625,9.0625 -4.8125,-4.8125 2.75,-2.75 c 0.32179,-0.32179 0.76563,-0.70314 1.28125,-1.21875 l 5.96875,-5.96875 a 2.4675274,2.4675274 0 0 0 0,-3.5 l -2.28125,-2.25 a 2.4675274,2.4675274 0 0 0 -2.03125,-0.71875 z"
       id="path2831"
       inkscape:connector-curvature="0" />
    <path
       style="font-size:40px;font-style:normal;font-variant:normal;font-weight:bold;font-stretch:normal;text-indent:0;text-align:start;text-decoration:none;line-height:normal;letter-spacing:normal;word-spacing:normal;text-transform:none;direction:ltr;block-progression:tb;writing-mode:lr-tb;text-anchor:start;baseline-shift:baseline;opacity:0.4;color:#000000;fill:#c5c5c5;fill-opacity:1;fill-rule:nonzero;stroke:none;stroke-width:4.93456125;marker:none;visibility:visible;display:inline;overflow:visible;filter:url(#filter5081);enable-background:accumulate;font-family:LMSans17;-inkscape-font-specification:LMSans17 Bold"
       d="m 203.625,77.96875 a 2.4675274,2.4675274 0 0 0 -1.46875,0.71875 L 182.1875,98.625 a 2.4675274,2.4675274 0 0 0 0,3.5 l 2.28125,2.28125 a 2.4675274,2.4675274 0 0 0 3.5,0 l 4.34375,-4.375 c 0.51563,-0.515632 0.89696,-0.95946 1.21875,-1.28125 l 1.15625,-1.15625 20.125,20.125 a 2.4675274,2.4675274 0 0 0 3.5,0 l 2.9375,-2.9375 a 2.4675274,2.4675274 0 0 0 0,-3.46875 l -20.125,-20.125 1.125,-1.15625 c 0.32178,-0.321777 0.79686,-0.734355 1.3125,-1.25 l 4.34375,-4.34375 -1.71875,-1.75 1.71875,-1.75 -2.25,-2.25 A 2.4675274,2.4675274 0 0 0 203.625,77.96875 z"
       id="path2833"
       inkscape:connector-curvature="0" />
    <path
       style="font-size:40px;font-style:normal;font-variant:normal;font-weight:bold;font-stretch:normal;text-indent:0;text-align:start;text-decoration:none;line-height:normal;letter-spacing:normal;word-spacing:normal;text-transform:none;direction:ltr;block-progression:tb;writing-mode:lr-tb;text-anchor:start;baseline-shift:baseline;opacity:0.4;color:#000000;fill:#c5c5c5;fill-opacity:1;fill-rule:nonzero;stroke:none;stroke-width:4.93456125;marker:none;visibility:visible;display:inline;overflow:visible;filter:url(#filter5075);enable-background:accumulate;font-family:LMSans17;-inkscape-font-specification:LMSans17 Bold"
       d="m 222.53125,59 a 2.4675274,2.4675274 0 0 0 -1.46875,0.71875 L 206.40625,74.375 a 2.4675274,2.4675274 0 0 0 0,3.46875 L 230.5625,102 a 2.4675274,2.4675274 0 0 0 3.46875,0 l 15.125,-15.125 -1.75,-1.75 1.75,-1.71875 L 246.75,81 a 2.4675274,2.4675274 0 0 0 -3.5,0 l -7.46875,7.53125 -2.90625,2.96875 -5.625,-5.65625 9.0625,-9.0625 a 2.4675274,2.4675274 0 0 0 0,-3.5 l -2.125,-2.125 a 2.4675274,2.4675274 0 0 0 -3.5,0 l -9.0625,9.0625 -4.8125,-4.8125 2.75,-2.75 c 0.32181,-0.321807 0.76562,-0.703119 1.28125,-1.21875 l 5.96875,-5.96875 a 2.4675274,2.4675274 0 0 0 0,-3.5 l -2.25,-2.25 A 2.4675274,2.4675274 0 0 0 222.53125,59 z"
       id="path2835"
       inkscape:connector-curvature="0" />
    <path
       style="font-size:medium;font-style:normal;font-variant:normal;font-weight:normal;font-stretch:normal;text-indent:0;text-align:start;text-decoration:none;line-height:normal;letter-spacing:normal;word-spacing:normal;text-transform:none;direction:ltr;block-progression:tb;writing-mode:lr-tb;text-anchor:start;baseline-shift:baseline;opacity:0.4;color:#000000;fill:#c5c5c5;fill-opacity:1;stroke:none;stroke-width:7.3629179;marker:none;visibility:visible;display:inline;overflow:visible;filter:url(#filter5069);enable-background:accumulate;font-family:Sans;-inkscape-font-specification:Sans"
       d="m 100.96268,103.21949 c -30.839406,30.83941 -53.001228,64.55713 -63.957945,94.57196 -5.478355,15.00741 -8.184816,29.10183 -7.588166,41.66138 0.596649,12.55955 4.644699,23.82824 12.86427,32.04781 8.219572,8.21957 19.48826,12.26762 32.047807,12.86427 12.559547,0.59665 26.653964,-2.10981 41.661384,-7.58817 30.01483,-10.95672 63.73255,-33.11854 94.57196,-63.95794 30.8394,-30.83941 52.97591,-64.53182 63.93263,-94.54665 5.47836,-15.00742 8.18482,-29.101839 7.58817,-41.661386 -0.59665,-12.559547 -4.6447,-23.828234 -12.86427,-32.047806 -8.21957,-8.219572 -19.48826,-12.267621 -32.04781,-12.864271 -12.55954,-0.59665 -26.65396,2.109812 -41.66138,7.588166 -30.01483,10.956717 -63.70724,33.093232 -94.54665,63.932637 z m 6.80311,6.80311 c 30.18139,-30.181384 63.22929,-51.739187 91.80418,-62.170268 14.28745,-5.21554 27.45625,-7.646627 38.37607,-7.127878 10.91982,0.518749 19.3526,3.813428 25.32508,9.785906 5.97248,5.972478 9.26715,14.405259 9.7859,25.325076 0.51875,10.919817 -1.88351,24.11745 -7.09905,38.404904 -10.43108,28.57488 -32.01771,61.59395 -62.1991,91.77534 -30.18139,30.18139 -63.22576,51.79333 -91.80065,62.22441 -14.287453,5.21554 -27.459778,7.59249 -38.379595,7.07374 -10.919816,-0.51875 -19.352597,-3.81342 -25.325075,-9.7859 -5.972479,-5.97248 -9.267158,-14.40526 -9.785906,-25.32508 -0.518749,-10.91982 1.887029,-24.06331 7.102569,-38.35077 10.431082,-28.57488 32.014193,-61.64809 62.195577,-91.82948 z"
       id="path3609"
       inkscape:connector-curvature="0" />
    <path
       style="font-size:medium;font-style:normal;font-variant:normal;font-weight:normal;font-stretch:normal;text-indent:0;text-align:start;text-decoration:none;line-height:normal;letter-spacing:normal;word-spacing:normal;text-transform:none;direction:ltr;block-progression:tb;writing-mode:lr-tb;text-anchor:start;baseline-shift:baseline;opacity:0.4;color:#000000;fill:#c5c5c5;fill-opacity:1;stroke:none;stroke-width:5.67802906;marker:none;visibility:visible;display:inline;overflow:visible;filter:url(#filter5063);enable-background:accumulate;font-family:Sans;-inkscape-font-specification:Sans"
       d="M 91.450408,93.706379 C 57.116678,128.04011 32.880107,166.02104 21.424737,200.04023 c -5.727695,17.00959 -8.255991,33.04812 -7.117632,47.33803 1.138359,14.28991 6.089222,27.04674 15.56841,36.52593 9.479187,9.47919 22.236018,14.43005 36.52593,15.56841 14.289912,1.13836 30.32844,-1.38994 47.338035,-7.11763 34.01918,-11.45537 72.00011,-35.69195 106.33384,-70.02568 34.33373,-34.33373 58.54206,-72.28641 69.99743,-106.3056 5.72769,-17.009589 8.28423,-33.076362 7.14588,-47.366273 C 296.07827,54.367505 291.09916,41.638918 281.61997,32.159731 272.14078,22.680543 259.4122,17.701436 245.12229,16.563077 230.83237,15.424718 214.7656,17.981258 197.75601,23.708953 163.73683,35.164323 125.78414,59.372649 91.450408,93.706379 z m 6.24583,6.24583 C 131.46365,66.1848 168.88141,42.458514 201.63507,31.429287 c 16.37684,-5.514613 31.56641,-7.805519 44.39577,-6.783516 12.82937,1.022003 23.06064,5.210026 30.47685,12.626239 7.41622,7.416213 11.63856,17.681804 12.66056,30.511168 1.022,12.829365 -1.2689,28.018934 -6.78352,44.395772 -11.02922,32.75366 -34.78983,70.13711 -68.55724,103.90451 -33.76741,33.76741 -71.15085,57.52802 -103.90452,68.55724 -16.37683,5.51462 -31.594643,7.83377 -44.424008,6.81177 -12.829364,-1.02201 -23.06671,-5.27259 -30.482923,-12.68881 -7.416214,-7.41621 -11.632481,-17.61924 -12.654484,-30.4486 -1.022004,-12.82937 1.297147,-28.04718 6.811761,-44.42401 11.029227,-32.75367 34.755513,-70.17143 68.522922,-103.938841 z"
       id="path3609-2"
       inkscape:connector-curvature="0" />
    <path
       style="font-size:medium;font-style:normal;font-variant:normal;font-weight:normal;font-stretch:normal;text-indent:0;text-align:start;text-decoration:none;line-height:normal;letter-spacing:normal;word-spacing:normal;text-transform:none;direction:ltr;block-progression:tb;writing-mode:lr-tb;text-anchor:start;baseline-shift:baseline;opacity:0.4;color:#000000;fill:#c5c5c5;fill-opacity:1;stroke:none;stroke-width:7.71424198;marker:none;visibility:visible;display:inline;overflow:visible;filter:url(#filter5057);enable-background:accumulate;font-family:Sans;-inkscape-font-specification:Sans"
       d="M 212.15625,46.21875 A 3.8575067,3.8575067 0 0 0 209.5,47.375 L 45.125,211.78125 a 3.8575067,3.8575067 0 1 0 5.4375,5.4375 l 164.40625,-164.375 a 3.8575067,3.8575067 0 0 0 -2.8125,-6.625 z"
       id="path3633"
       inkscape:connector-curvature="0" />
    <path
       style="font-size:medium;font-style:normal;font-variant:normal;font-weight:normal;font-stretch:normal;text-indent:0;text-align:start;text-decoration:none;line-height:normal;letter-spacing:normal;word-spacing:normal;text-transform:none;direction:ltr;block-progression:tb;writing-mode:lr-tb;text-anchor:start;baseline-shift:baseline;opacity:0.4;color:#000000;fill:#c5c5c5;fill-opacity:1;stroke:none;stroke-width:7.71424198;marker:none;visibility:visible;display:inline;overflow:visible;filter:url(#filter5051);enable-background:accumulate;font-family:Sans;-inkscape-font-specification:Sans"
       d="m 257.625,91.6875 a 3.8575067,3.8575067 0 0 0 -2.65625,1.15625 L 90.5625,257.21875 a 3.8669902,3.8669902 0 1 0 5.46875,5.46875 L 260.40625,98.28125 A 3.8575067,3.8575067 0 0 0 257.625,91.6875 z"
       id="path3633-6"
       inkscape:connector-curvature="0" />
  </g>
</svg>
