<svg id="Layer_1" data-name="Layer 1" xmlns="http://www.w3.org/2000/svg" viewBox="0 0 59.4 66.15"><defs><style>.cls-1{fill:#1347ff;stroke:#fff;stroke-linecap:round;stroke-linejoin:round;stroke-width:.6px}</style></defs><path class="cls-1" d="M44.15 24.51L18 9.34l-3.62 2.13V43l26.15 15.16L44.15 56z"/><path class="cls-1" d="M40.53 26.64L14.35 11.47V43l26.18 15.16z"/><path d="M21 36.16l1.7-.37 1.42 3.7 1.65.38 1.45 3.53-.07.8-7.9-6.37.45-5.71zm7.36 1.72l-1.26-1a2.45 2.45 0 01-.6-.12 2.57 2.57 0 01-1.48-1 7 7 0 01-.6-1l-5.19-4.17-.53 7.46 8.9 7.12zm-9.64-8.43l.51.42 1-11.75L37 30.26l-2.08 19.12-2-1.49a2.3 2.3 0 01.82-.55c.58-.24.38-1.35 0-2.17-.46-1.32-2.78-4-2.65-5.63.05-.58.13-1.33.6-1.61a2.59 2.59 0 010 .44 1.13 1.13 0 00.29-.54 1.23 1.23 0 00.28-.25 2.28 2.28 0 01.06.56 2.38 2.38 0 00.18-.73 2 2 0 01.12.56 3 3 0 00.16-1 4.84 4.84 0 00.29-2.33c-.46.13-1.59-.64-2.07-1.64a3.9 3.9 0 01.07-2.32 14.92 14.92 0 01.93-2.24c-.11.35-.32 1.08-.4 1.44a4.74 4.74 0 00-.2 2.16 3.52 3.52 0 00.94 1.75 1.18 1.18 0 001.46.27 1.86 1.86 0 001.09-1.3 3.63 3.63 0 00-.38-1.41c.21.19.44.45.44.45s-.27-.5-.61-1c-.14-.2-.23-.32-.38-.55l.39.23s-.35-.44-.73-.83a6.17 6.17 0 01.54.31s-.8-.9-1.43-1.59c-.44-.47-.86-.65-1.1-.37s-.64.47-1.34.25a10.47 10.47 0 00-1.09-1.16 4 4 0 00-.84-1.21 2.2 2.2 0 01.23.66c-.27-.41-.56-.79-.56-.79a5.08 5.08 0 01.22.57c-.31-.4-.68-.8-.68-.8s.11.22.23.5a10.15 10.15 0 00-.9-.48c-1.07-.54-1.3-2.13-1.72-2.54s-.76-.8-1.66-.26-1.37 1.76-1.07 2.3.74.31 1.29-.2a2 2 0 00.61-1.25.78.78 0 01.42-.63 2.33 2.33 0 00-.19.87 2.76 2.76 0 01-.36 1.53c0 .09 0 .41.08.49.39-.34 1.23-.26 1.37-.3a3.72 3.72 0 00-1.94 1.4c-.38.73-.16 1.74-.35 1.85a3.73 3.73 0 00-1 1.25 5.06 5.06 0 00.32 3l1 .73a.78.78 0 00.36.05 6.19 6.19 0 01-.21-.71l.06-.08a10 10 0 001.2 2 2.84 2.84 0 001.54.96 5 5 0 002.5-.16v.22a4.56 4.56 0 01-1.6.68l1.37 1-.65 5.72c.29.21.33.26.65.5.27-1 .8-1.49 1.38-1.6a2.61 2.61 0 011.89.78v.08a2.16 2.16 0 00-1.59-.47c-.56.11-1 .95-1.17 1.51a3.72 3.72 0 00.21 2.84c.41.92 1.59 2 2.55 1.73a.84.84 0 01-1.07.36 3.65 3.65 0 01-1.79-1.64 5.73 5.73 0 01-.54-2.84l-.6-.47L28 46l-10.11-7.32zm6.13-1.56a.48.48 0 010 .38v.06c-.12.23-.25.43-.47.44l-.17-.12a.75.75 0 00-.42-.16 1.56 1.56 0 010-.24c0-.36-.06-1 .54-1a.85.85 0 01.64.44h-.05c-.22-.03-.11.1-.08.2zm-1.67 2.52a3 3 0 01.7.42 6.07 6.07 0 011.13 1c.21.32.11.61 0 .66a1.22 1.22 0 01-1.22-.12 2.91 2.91 0 01-.62-1.3c-.17-.32-.17-.64 0-.66zm4.32-.51c-.13-.24.69 0 1.33.93.47.67.48 1.51 0 1.72a.3.3 0 01-.11 0l-.46-.48a5.58 5.58 0 00-.73-.63 1.58 1.58 0 01-.18-.88c.06-.5.41-.2.14-.66z" fill="#fff" fill-rule="evenodd"/></svg>