<svg id="Layer_1" data-name="Layer 1" xmlns="http://www.w3.org/2000/svg" viewBox="0 0 59.4 66.15"><defs><style>.cls-1{fill:#1347ff;stroke:#fff;stroke-miterlimit:10;stroke-width:.6px}</style></defs><path class="cls-1" d="M41.26 25.26c-2.48-4.78-5.91-8.83-9.7-11s-6.92-1.88-9.71-.24c-.56.33-3.78 2-4.75 2.78a7.92 7.92 0 00-1.25 1.2l20.66 36.07c.83-.5 3.78-2 4.75-2.79 2.48-1.89 4-5.6 4-10.68a34.29 34.29 0 00-4-15.34z"/><path class="cls-1" d="M40.53 43.39c0 5.08-1.54 8.79-4 10.68s-5.92 2-9.7-.25-7.22-6.25-9.71-11a34.33 34.33 0 01-4-15.35c0-5.08 1.54-8.79 4-10.67s5.92-2 9.71.24 7.21 6.25 9.7 11a34.36 34.36 0 014 15.35z"/><path d="M26.81 23.55c-5.08-2.93-9.2-.24-9.2 6a21.73 21.73 0 006.29 14.37c.46.36.63.12.63-.17v-2.12a4.39 4.39 0 01-3.09-3.11 8.09 8.09 0 00-.94-2.14c-.32-.4-.78-1.19 0-.76a4.24 4.24 0 011.41 2c.83 2.19 2.15 2.47 2.68 2.48.08-.69.32-1 .58-1.18a9.11 9.11 0 01-4.18-8 3 3 0 01.94-2.49 4.93 4.93 0 01.1-2.95s.77.15 2.52 2.62a8.46 8.46 0 012.3.94 12.8 12.8 0 012.3 1.71 2.68 2.68 0 012.53.3 4.94 4.94 0 01.09 3 7.75 7.75 0 01.94 3.59c0 4.34-2.14 4.06-4.19 3.16a4.8 4.8 0 01.62 2.45v3.1a1 1 0 00.63.91c3.63.59 6.26-2.13 6.26-7.12-.03-6.22-4.14-13.65-9.22-16.59z" fill="#fff" fill-rule="evenodd"/></svg>