<svg id="Layer_1" data-name="Layer 1" xmlns="http://www.w3.org/2000/svg" viewBox="0 0 59.4 66.15"><defs><style>.cls-1{fill:#1347ff;stroke:#fff;stroke-miterlimit:10;stroke-width:.6px}</style></defs><path class="cls-1" d="M11.34 26.52l1.46-6.74L14.27 13a1.55 1.55 0 01.44-.82c.21-.2 2.52-1.36 2.73-1.56a1.15 1.15 0 01.79-.29h11.86a2 2 0 01.53.08 2.45 2.45 0 01.57.27 3.32 3.32 0 01.45.34 3.51 3.51 0 01.42.44L38 18.34l5.94 6.78a5.66 5.66 0 01.79 1.2 5.12 5.12 0 01.44 1.32l1.45 8.42 1.46 8.41a3.35 3.35 0 010 1.09 1.68 1.68 0 01-.34.79l-.06.08-.07.06-4.1 3.73-4.1 3.78c-.21.2-2.73 1.55-2.73 1.55a1.14 1.14 0 01-.79.29 2.1 2.1 0 01-1-.31l-6.58-3.77-6.58-3.78a3.77 3.77 0 01-1-.83 5.86 5.86 0 01-.73-1.24l-4.1-8.44L11.77 29a5.06 5.06 0 01-.44-1.33 3.15 3.15 0 01.01-1.15z"/><path class="cls-1" d="M28.45 12.32a4.43 4.43 0 01.45.34 4.49 4.49 0 01.43.44l5.94 6.78 5.94 6.79a5.73 5.73 0 01.79 1.19 5.16 5.16 0 01.43 1.33l1.46 8.41 1.45 8.4a3.1 3.1 0 010 1.09 1.67 1.67 0 01-.34.8V48a.23.23 0 01-.07.07l-4.1 3.73-4.1 3.73a1.18 1.18 0 01-.8.28 2.12 2.12 0 01-1-.3l-6.6-3.81-6.58-3.77a4 4 0 01-1-.84A4.93 4.93 0 0120 45.9l-4.1-8.43L11.77 29a5 5 0 01-.43-1.32 3 3 0 010-1.19l1.46-6.75L14.27 13a1.55 1.55 0 01.44-.82 1.15 1.15 0 01.79-.29h11.86a1.79 1.79 0 01.54.09 3.09 3.09 0 01.56.26z"/><path d="M28.33 17.43c.87.41.68 1.78.6 2.33a9 9 0 00-.07 1.49 1.66 1.66 0 00.24.57v.37a16 16 0 011.28 1A20.21 20.21 0 0135 29l.26-.07a.59.59 0 00.42.19 2.89 2.89 0 001-.48c.38-.28 1.12-.84 1.68.3s-.43 1.24-.91 1.28a2.92 2.92 0 00-1.06.28.6.6 0 00-.14.41L36 31a16.83 16.83 0 011.45 8.46l.3.27a2.58 2.58 0 00.3.54 11.18 11.18 0 001.28 1c.57.38 1.62 1 1.5 1.94a.47.47 0 01-.2.36c-.41.27-1.12-.52-1.57-1a13.07 13.07 0 00-1.24-1.14.52.52 0 00-.41-.06l-.32-.25A5 5 0 0133 44.87l.13.4a.78.78 0 00-.06.44 14.89 14.89 0 00.64 1.76c.32.75.95 2.1.21 2.19a.65.65 0 01-.43-.14 3.3 3.3 0 01-.88-2.05 12.44 12.44 0 00-.55-1.83 1.18 1.18 0 00-.31-.35l-.16-.44A11.53 11.53 0 0125 41.11l-.14.24a.32.32 0 00-.36.06 4.9 4.9 0 00-.49 1.14c-.16.56-.41 1.61-1.22.79a1.61 1.61 0 01-.34-.53 1.28 1.28 0 01.55-1.53 5.26 5.26 0 00.64-1 .92.92 0 00-.08-.55 1.39 1.39 0 00.12-.28A22.19 22.19 0 0119.56 31l-.31-.11a1.07 1.07 0 00-.39-.4 5.94 5.94 0 00-1.24-.28c-.53-.07-1.47-.07-1.74-1.2a1 1 0 010-.53c.19-.56 1-.12 1.47.15a6.84 6.84 0 001.27.48.42.42 0 00.31-.19l.28.06c-.3-2.84.22-5.25 1.48-6.77l-.25-.42a1.16 1.16 0 00-.13-.55 15.24 15.24 0 00-1.06-1.49c-.49-.62-1.42-1.69-1-2.29a.36.36 0 01.37-.15c.55.09 1.05 1.11 1.36 1.73a16.45 16.45 0 001.02 1.6 1.12 1.12 0 00.43.31l.27.38c1.55-1 3.65-1.06 5.9 0v-.37a.32.32 0 00.23-.29 9.56 9.56 0 00-.08-1.58c-.12-.78-.31-2.09.58-1.66zm.89 7.07l.21 4.56a1.46 1.46 0 00.36.84.62.62 0 00.63.3l3.06-.83A16.2 16.2 0 0030 25.08c-.25-.21-.5-.4-.76-.58zm-1.78-1a4.63 4.63 0 00-4.25 0l3 4.3a.94.94 0 00.65.47c.22 0 .36-.18.36-.47zm7.17 8.21l-2.8 1.37c-.17.08-.25.32-.19.61a1.47 1.47 0 00.44.81l3.58 3.29a13.43 13.43 0 00-1-6.11zm-12.53-7.2A7.27 7.27 0 0021 29.39l3.59.83a.34.34 0 00.44-.3 1.23 1.23 0 00-.19-.84l-2.78-4.55zm6.82 7.11L27.76 31l-.7.65.26 1.47 1 1.18h1l.24-1.18zm-3.66 1.51a.5.5 0 00-.14-.08l-3.69-1.38a17.6 17.6 0 002.95 6.14l1.43-3.31a1.21 1.21 0 00-.33-1.17l-.21-.18zm6.21 3.58a.37.37 0 00-.51 0 .72.72 0 00-.05.67l1.42 4.9a3.94 3.94 0 002.94-2.7l-3.67-2.85-.12-.07zm-3.09 0c-.24-.14-.46-.12-.58.06L26 39.62l.73.66a8.47 8.47 0 004 2l-1.81-4.92a1.37 1.37 0 00-.53-.68z" fill="#fff"/></svg>