<svg id="Layer_1" data-name="Layer 1" xmlns="http://www.w3.org/2000/svg" viewBox="0 0 59.4 66.15"><defs><style>.cls-1{fill:#1347ff;stroke:#fff;stroke-width:.6px}</style></defs><path class="cls-1" d="M14.2 28.72c-1.12 1.69-1.19 4.42-.1 7.33a13.34 13.34 0 005.44 6.76L37.27 53.1c1.75 1 3.24 1.13 4.27.52.13-.08.43-.26.81-.47.76-.45 1.8-1 2.14-1.27a2.83 2.83 0 00.85-.84 5.5 5.5 0 00.74-3.13 13.09 13.09 0 00-.91-4.34L36.3 19.88a13.66 13.66 0 00-5.3-7 4 4 0 00-3.58-.52 17.56 17.56 0 00-1.64.91l-.77.47-.8.47a3.22 3.22 0 00-1.14 1.1z"/><path class="cls-1" d="M28.1 14.6a4.49 4.49 0 00-2.9-.71 3.05 3.05 0 00-2.13 1.44L14.2 28.72c-1.12 1.69-1.2 4.42-.1 7.32a13.29 13.29 0 005.43 6.76l17.74 10.3a5.47 5.47 0 003.09.88 2.66 2.66 0 002.08-1.24 5.43 5.43 0 00.74-3.13 13.09 13.09 0 00-.91-4.34L33.4 21.58a13.61 13.61 0 00-5.3-6.98z"/><path d="M17.21 32.72a3.33 3.33 0 00-.13 3 5.37 5.37 0 002.3 2.75l2 1.14v-1.35c0-.45 0-1 .05-1.45l-1.29-.75a1.32 1.32 0 01-.57-1 .5.5 0 01.07-.29l8.19-12.38a.35.35 0 01.5-.06 1.29 1.29 0 01.49.62L30 26.44c-3.95 1.29-6.61 5.3-7 11.4v2.8l6.39 3.71c0-.46-.06-.91-.06-1.36s0-1 .07-1.44c.32-3.29 1.73-5.55 3.81-6.51l.89 2.39c-1.57.85-2.64 2.63-2.93 5.15a10.91 10.91 0 00-.03 1.42c0 .45 0 .91.06 1.37l5.92 3.43c1 .6 1.88.57 2.31-.08s.38-1.81-.14-3.2l-1.21-3.21a3.54 3.54 0 00-1.86.66l.73 1.9a1.19 1.19 0 01.06.37c0 .38-.25.54-.57.36l-2.87-1.67a4.86 4.86 0 011.79-3.29 3.42 3.42 0 011.86-.64L34 31.43a7.17 7.17 0 00-1.93.46c-2.76 1.09-4.63 4-5 8.3l-1.71-1c.35-5.06 2.54-8.43 5.81-9.61a7.81 7.81 0 011.94-.43l-2.73-7.31a5.74 5.74 0 00-2.17-3 1.48 1.48 0 00-2.17.44z" fill="#fff"/></svg>