<svg width="17" height="7" viewBox="0 0 17 7" fill="none" xmlns="http://www.w3.org/2000/svg">
<path d="M8.37801 7C8.57782 7 8.76251 6.97236 8.93205 6.91708C9.10159 6.85719 9.26508 6.76505 9.42251 6.64067L15.8258 1.66535C16.068 1.47647 16.1891 1.25074 16.1891 0.988154C16.1891 0.803883 16.1316 0.638039 16.0165 0.490622C15.9015 0.338598 15.7471 0.218822 15.5533 0.131293C15.3596 0.0437644 15.1446 0 14.9085 0C14.5512 0 14.2363 0.103653 13.9639 0.310958L8.02378 4.97532H8.75948L2.79215 0.310958C2.51967 0.103653 2.20783 0 1.85664 0C1.61443 0 1.39645 0.0437644 1.20268 0.131293C1.00892 0.218822 0.854513 0.338598 0.739466 0.490622C0.624418 0.638039 0.566895 0.803883 0.566895 0.988154C0.566895 1.11714 0.59717 1.23922 0.657721 1.35439C0.724328 1.46496 0.818182 1.56861 0.939285 1.66535L7.3335 6.64067C7.64836 6.88022 7.99653 7 8.37801 7Z" fill="black"/>
</svg>
