<svg width="145" height="164" fill="none" xmlns="http://www.w3.org/2000/svg"><path d="M145 17.454v-.739h-20.245V.8h-.941v15.915h-19.772V.8h-.94v15.915H83.327V.8h-.94v15.915H62.61V.8h-.948v15.915H41.898V.8h-.94v15.915H21.183V.8h-.945v15.915H0v.74h20.238V33H0v.74h20.238v15.543H0v.739h20.238v15.546H0v.739h20.238v15.545H0v.738h20.238v15.545H0v.74h20.238v15.545H0v.739h20.238v15.544H0v.739h20.238v15.546H0v.739h20.238v15.913h.94v-15.913h19.775v15.913h.94v-15.913h19.77v15.913h.938v-15.913h19.775v15.913h.94v-15.913h19.775v15.913h.941v-15.913h19.772v15.913h.941v-15.913h20.245v-.739h-20.235v-15.546H145v-.739h-20.245v-15.544H145v-.739h-20.245V98.874H145v-.739h-20.245V82.59H145v-.738h-20.245V66.307H145v-.74h-20.245V50.023H145v-.74h-20.245V33.74H145V33h-20.245V17.454H145zm-41.898 0V33H83.327V17.454h19.775zm-40.49 80.681V82.59h19.774v15.545H62.611zm19.774.74v15.545H62.611V98.874h19.775zM62.611 81.851V66.307h19.775v15.545H62.611zm0-16.284V50.022h19.775v15.546H62.611zm0-16.285V33.739h19.775v15.544H62.611zm-.938 0H41.898V33.739h19.765l.01 15.544zm0 .739v15.546H41.898V50.022h19.775zm0 16.285v15.545H41.898V66.307h19.775zm0 16.283v15.545H41.898V82.59h19.775zm0 16.284v15.546H41.898V98.874h19.775zm0 16.285v15.544H41.898v-15.544h19.775zm.938 0h19.775v15.544H62.611v-15.544zm20.716 0h19.775v15.544H83.327v-15.544zm0-.739V98.874h19.775v15.546H83.327zm0-16.285V82.59h19.775v15.545H83.327zm0-16.283V66.307h19.775v15.545H83.327zm0-16.284V50.022h19.775v15.546H83.327zm0-16.285V33.739h19.775v15.544H83.327zm-.94-31.829V33H62.61V17.454h19.775zm-20.714 0V33H41.898V17.454h19.775zm-40.49 0h19.775V33H21.183V17.454zm0 16.285h19.775v15.544H21.183V33.739zm0 16.283h19.775v15.546H21.183V50.022zm0 16.285h19.775v15.545H21.183V66.307zm0 16.283h19.775v15.545H21.183V82.59zm0 16.284h19.775v15.546H21.183V98.874zm0 16.285h19.775v15.544H21.183v-15.544zm0 31.829v-15.546h19.775v15.546H21.183zm20.715 0v-15.546h19.765v15.546H41.898zm20.713 0v-15.546h19.775v15.546H62.611zm20.716 0v-15.546h19.775v15.546H83.327zm40.487 0h-19.772v-15.546h19.772v15.546zm0-16.285h-19.772v-15.544h19.772v15.544zm0-16.283h-19.772V98.874h19.772v15.546zm0-16.285h-19.772V82.59h19.772v15.545zm0-16.283h-19.772V66.307h19.772v15.545zm0-16.284h-19.772V50.022h19.772v15.546zm0-16.285h-19.772V33.739h19.772v15.544zm0-16.283h-19.772V17.454h19.772V33z" fill="url(#paint0_radial_6718_4245)" fill-opacity=".5"/><defs><radialGradient id="paint0_radial_6718_4245" cx="0" cy="0" r="1" gradientUnits="userSpaceOnUse" gradientTransform="matrix(97.4266 0 0 109.522 72.5 82.099)"><stop stop-color="#fff"/><stop offset=".2" stop-color="#fff" stop-opacity=".84"/><stop offset=".62" stop-color="#fff" stop-opacity=".42"/><stop offset="1" stop-color="#fff" stop-opacity="0"/></radialGradient></defs></svg>