<svg width="392" height="462" viewBox="0 0 392 462" fill="none" xmlns="http://www.w3.org/2000/svg">
<path d="M1.00006 460.393L259.806 309.382C278.258 298.747 293.461 275.76 293.461 254.49V144.854C293.461 114.425 308.476 85.9242 333.622 68.7212L449.362 2" stroke="url(#paint0_linear_12860_30158)" stroke-width="2.7742" stroke-miterlimit="10"/>
<path d="M195 294.824C195 297.786 197.001 301.365 199.496 302.797L212.119 310.079L219.159 323.186L226.199 318.224L238.822 325.506C241.292 326.938 243.318 325.679 243.318 322.717V281.248C243.318 278.286 241.317 274.707 238.822 273.276L199.496 250.591C197.026 249.16 195 250.419 195 253.381V294.824Z" fill="#1BE99A"/>
<circle r="5.94155" transform="matrix(-1 0 0 1 218.148 333.371)" fill="#1BE99A"/>
<path fill-rule="evenodd" clip-rule="evenodd" d="M219.162 273.455C212.034 269.335 206.256 272.937 206.256 281.499C206.256 290.06 212.034 300.34 219.162 304.457C226.289 308.577 232.068 304.976 232.068 296.414C232.066 287.853 226.288 277.573 219.162 273.455ZM227.948 290.087L218.101 296.225C217.794 296.416 217.379 296.383 216.946 296.132C216.513 295.882 216.097 295.434 215.79 294.889L210.779 285.974C210.141 284.839 210.141 283.596 210.779 283.199C211.417 282.801 212.453 283.398 213.091 284.533L216.946 291.391L225.637 285.974C226.275 285.577 227.31 286.174 227.948 287.309C228.586 288.446 228.586 289.689 227.948 290.087Z" fill="white"/>
<defs>
<linearGradient id="paint0_linear_12860_30158" x1="491.922" y1="-2.00786" x2="-54.5186" y2="564.159" gradientUnits="userSpaceOnUse">
<stop stop-color="#1347FF"/>
<stop offset="0.805568" stop-color="white" stop-opacity="0"/>
</linearGradient>
</defs>
</svg>
