<svg width="175" height="356" viewBox="0 0 175 356" fill="none" xmlns="http://www.w3.org/2000/svg">
<path d="M172.881 355.039V201.91C172.881 169.497 156.887 139.137 130.102 120.813L-76 2" stroke="url(#paint0_linear_12860_30014)" stroke-width="2.7742" stroke-miterlimit="10"/>
<path d="M104.663 76.5752L102.528 66.7327L100.392 56.8902C100.28 56.3733 100.058 55.9645 99.7515 55.6859C99.4461 55.4086 96.0724 53.7031 95.767 53.4245C95.4603 53.1458 95.0697 52.9974 94.6188 53L85.967 53.0469L77.3152 53.0938C77.0662 53.0899 76.8027 53.1328 76.5327 53.2188C76.2627 53.3047 75.9862 53.4362 75.7083 53.608L75.7162 53.6041L75.724 53.6002C75.5012 53.7434 75.281 53.9114 75.0674 54.1028C74.8524 54.2928 74.644 54.5064 74.4448 54.7381L65.7799 64.634L57.1149 74.5299C56.6627 75.0468 56.2722 75.6431 55.9655 76.2719C55.6601 76.9007 55.4386 77.5634 55.3258 78.2092L53.2052 90.4824L51.0845 102.757C50.9835 103.334 50.9731 103.871 51.053 104.339C51.133 104.806 51.2994 105.205 51.5511 105.505C51.5812 105.542 51.6114 105.577 51.6415 105.612C51.673 105.646 51.7044 105.678 51.7372 105.71L57.7244 111.149L63.7116 116.589C64.0275 116.871 67.6974 118.851 67.6974 118.851C68.0133 119.134 68.4091 119.27 68.8508 119.265C69.2925 119.26 69.7801 119.112 70.2807 118.821L79.8828 113.314L89.4849 107.807C89.9869 107.519 90.4758 107.1 90.9188 106.594C91.3618 106.086 91.7563 105.492 92.0722 104.854L98.0555 92.5485L104.039 80.2428C104.353 79.5996 104.568 78.9382 104.676 78.3094C104.783 77.6806 104.783 77.0856 104.663 76.5752Z" fill="#1347FF" stroke="white" stroke-width="0.87249" stroke-miterlimit="10"/>
<path d="M79.7103 55.8606C79.4875 56.0038 79.2673 56.1718 79.0537 56.3632C78.8387 56.5533 78.6303 56.7668 78.4311 56.9985L69.7662 66.8944L61.1013 76.7903C60.6491 77.3072 60.2585 77.9035 59.9518 78.5323C59.6464 79.1611 59.4249 79.8238 59.3122 80.4696L57.1915 92.7428L55.0708 105.016C54.9699 105.593 54.9594 106.13 55.0393 106.598C55.118 107.065 55.2857 107.464 55.5374 107.764C55.5675 107.801 55.5977 107.836 55.6278 107.871C55.658 107.906 55.6907 107.938 55.7235 107.969L61.7107 113.408L67.6979 118.848C68.0138 119.13 68.4096 119.267 68.8513 119.262C69.293 119.256 69.7806 119.108 70.2813 118.818L79.8834 113.311L89.4854 107.803C89.9874 107.516 90.4763 107.097 90.9193 106.59C91.3623 106.082 91.7568 105.489 92.0727 104.851L98.056 92.5449L104.039 80.2391C104.354 79.596 104.569 78.9346 104.676 78.3058C104.784 77.6783 104.782 77.0833 104.662 76.5716L102.527 66.7291L100.392 56.8866C100.279 56.3697 100.057 55.9609 99.7507 55.6823C99.444 55.4037 99.0534 55.2552 98.6025 55.2578L89.9507 55.3047L81.2989 55.3516C81.0499 55.3477 80.7864 55.3906 80.5164 55.4766C80.2464 55.5625 79.9699 55.694 79.692 55.8658L79.6999 55.8619L79.7103 55.8606Z" fill="#1347FF" stroke="white" stroke-width="0.87249" stroke-miterlimit="10"/>
<path d="M79.8701 63.3094C78.6118 63.9096 78.8845 65.9093 78.9946 66.7048C79.0902 67.3922 79.1243 68.1239 79.0968 68.8881C79.0378 69.168 78.9199 69.4584 78.7573 69.7214L78.7337 70.2577C78.1046 70.6822 77.4794 71.1548 76.8634 71.6755C74.2722 73.8576 71.9143 76.8129 70.0924 80.1641L69.7189 80.0625C69.5131 80.2539 69.2929 80.3529 69.1041 80.3411C68.5995 80.1849 68.1329 79.9506 67.7096 79.6394C67.1512 79.2293 66.0712 78.4104 65.2547 80.0795C64.4604 81.7042 65.8772 81.8787 66.5824 81.9425C67.1329 81.992 67.6519 82.1222 68.1342 82.35C68.2574 82.4893 68.3295 82.6937 68.3413 82.9437L68.6808 83.1194C66.8511 87.4418 66.1001 91.8384 66.5693 95.463L66.1341 95.8614C66.0201 96.1413 65.8694 96.4121 65.6898 96.6503C65.083 97.1919 64.4604 97.671 63.8326 98.0798C62.999 98.624 61.4694 99.5132 61.6424 100.904C61.6726 101.15 61.7735 101.336 61.9295 101.436C62.5311 101.825 63.5691 100.673 64.2232 99.9858C64.8064 99.3739 65.4106 98.8128 66.0306 98.3194C66.2455 98.2113 66.45 98.1801 66.6243 98.2295L67.0909 97.8689C68.1015 101.027 70.2261 102.978 73.0624 103.347L72.8724 103.929C72.9589 104.096 72.9916 104.319 72.9654 104.573C72.7085 105.428 72.3953 106.286 72.0283 107.135C71.5538 108.231 70.6337 110.205 71.7216 110.328C71.9116 110.35 72.1318 110.28 72.3494 110.127C73.1961 109.535 73.4661 108.045 73.6365 107.141C73.9117 106.174 74.0612 105.218 74.4373 104.466C74.5605 104.257 74.7152 104.078 74.8816 103.951L75.1149 103.312C78.1898 102.958 81.591 101.017 84.6725 97.8598L84.8795 98.2139C85.0906 98.1293 85.2806 98.1605 85.4077 98.2907C85.7 98.7868 85.936 99.3466 86.1168 99.9598C86.3567 100.775 86.7197 102.311 87.8902 101.113C88.096 100.902 88.2729 100.633 88.3935 100.344C88.8666 99.2112 88.1549 98.5342 87.7263 98.1098C87.3685 97.6997 87.0605 97.2206 86.7931 96.6855C86.7433 96.4602 86.7813 96.1712 86.8993 95.8835C86.8325 95.7598 86.7748 95.627 86.7263 95.4838C89.5561 91.8501 91.6715 87.4574 92.6716 83.1403L93.1133 82.9801C93.2718 82.7171 93.4802 82.5062 93.6939 82.3917C94.3112 82.1782 94.9168 82.061 95.5013 81.9855C96.2707 81.8852 97.643 81.8852 98.0309 80.2292C98.0991 79.9375 98.0978 79.6654 98.027 79.4545C97.7518 78.6369 96.5866 79.2931 95.884 79.6785C95.2562 79.9909 94.6336 80.2253 94.0268 80.3776C93.8407 80.3607 93.6847 80.2643 93.5785 80.1003L93.1591 80.1927C93.6074 76.0435 92.8393 72.5309 91.0044 70.3202L91.3714 69.7057C91.3556 69.461 91.4264 69.168 91.564 68.8946C92.0411 68.1317 92.5588 67.4026 93.1041 66.7217C93.8276 65.8156 95.175 64.2546 94.5249 63.3797C94.399 63.2104 94.2077 63.1375 93.9822 63.1727C93.1722 63.3016 92.4448 64.7871 91.99 65.6945C91.5798 66.49 91.1249 67.2594 90.6321 67.9989C90.4329 68.2098 90.2153 68.3622 90.0043 68.4403L89.6111 69.0001C87.341 67.4664 84.2819 67.4599 81.0038 68.9871C81.0038 68.8022 80.9842 68.5353 80.9803 68.4494C80.8046 68.4051 80.6814 68.2554 80.6408 68.0289C80.6198 67.2933 80.6591 66.5212 80.7587 65.7245C80.9016 64.5905 81.1703 62.6897 79.8701 63.3094ZM78.5725 73.6284L78.2619 80.2812L78.2383 80.2943C78.2226 80.7031 78.0247 81.1574 77.7219 81.5246C77.4191 81.8917 77.06 82.0401 76.7887 81.9594L72.3337 80.7512C73.7518 78.2776 75.5304 76.1034 77.4702 74.4708C77.8346 74.17 78.2016 73.8888 78.5699 73.6284H78.5725ZM81.1664 72.1416C83.5073 71.1457 85.6856 71.1496 87.3711 72.1494L82.9581 78.4195C82.6855 78.8348 82.3132 79.1004 81.9973 79.1043C81.6815 79.1069 81.4796 78.8452 81.4744 78.4325L81.1664 72.1416ZM70.7176 84.1154L74.7912 86.1126V86.1399C75.0442 86.2584 75.1556 86.6047 75.0809 87.0382C75.0062 87.4718 74.7545 87.9261 74.4321 88.2165V88.2347L69.2038 93.0258C68.9456 90.3672 69.4777 87.2309 70.7189 84.1128L70.7176 84.1154ZM88.9938 73.6336C90.2311 75.3235 90.7789 77.8258 90.5522 80.7604L85.316 81.9646V81.9399C84.9896 82.0219 84.7406 81.8553 84.6672 81.5051C84.5938 81.1561 84.7026 80.6874 84.9569 80.2747L89.0003 73.6427L88.9938 73.6336ZM79.0352 84.0165L80.7024 83.0609L81.7208 84.0191L81.3512 86.1594L79.8531 87.8767L78.3523 87.8793L77.9998 86.1542L79.0352 84.0165ZM84.3749 86.2141C84.4444 86.1646 84.5309 86.1152 84.5846 86.0943L89.9755 84.0868C89.1982 87.2023 87.6634 90.362 85.6607 93.0362L83.5767 88.2178C83.3788 87.7751 83.5977 87.0083 84.0643 86.5044C84.1613 86.4003 84.2635 86.3131 84.3684 86.2454L84.3749 86.2141ZM75.3194 91.4348C75.6248 91.2656 75.9053 91.2916 76.0717 91.4999C76.2382 91.7082 76.2644 92.0754 76.1451 92.4777V92.5024L74.0743 99.6552C72.0912 99.2776 70.5865 97.8884 69.7857 95.7064L75.1307 91.5611C75.1897 91.5194 75.2499 91.4856 75.3115 91.4583L75.3194 91.4348ZM79.836 91.44C80.182 91.2278 80.5058 91.2643 80.6709 91.5325L80.6906 91.5207L83.3251 95.6765L82.2726 96.6503C80.3354 98.2894 78.3117 99.3258 76.4283 99.6421L79.0719 92.4594C79.2318 92.0337 79.528 91.66 79.8491 91.4674L79.836 91.44Z" fill="white"/>
<defs>
<linearGradient id="paint0_linear_12860_30014" x1="-38.5183" y1="45.4725" x2="543.548" y2="648.551" gradientUnits="userSpaceOnUse">
<stop stop-color="#1347FF"/>
<stop offset="0.393462" stop-color="white" stop-opacity="0"/>
</linearGradient>
</defs>
</svg>
