<svg width="24" height="24" viewBox="0 0 24 24" fill="none" xmlns="http://www.w3.org/2000/svg">
<path d="M18.3732 1H5.62674C4.56056 1 3.69315 1.86741 3.69315 2.93359V21.0664C3.69315 22.1326 4.56056 23 5.62674 23H18.3732C19.4394 23 20.3068 22.1326 20.3068 21.0664V2.93359C20.3068 1.86741 19.4393 1 18.3732 1ZM6.31824 4.79629C6.31824 4.5127 6.55027 4.28066 6.83386 4.28066H17.3386C17.6222 4.28066 17.8542 4.5127 17.8542 4.79629V6.76207C17.8542 7.04566 17.6222 7.27769 17.3386 7.27769H6.83386C6.55027 7.27769 6.31824 7.04566 6.31824 6.76207V4.79629ZM12.6027 11.8451H11.3973C11.0413 11.8451 10.7528 11.5565 10.7528 11.2006V10.3247C10.7528 9.96878 11.0414 9.6802 11.3973 9.6802H12.6027C12.9587 9.6802 13.2472 9.96878 13.2472 10.3247V11.2006C13.2472 11.5565 12.9587 11.8451 12.6027 11.8451ZM13.2472 14.4765V15.3523C13.2472 15.7082 12.9587 15.9968 12.6027 15.9968H11.3973C11.0414 15.9968 10.7528 15.7082 10.7528 15.3523V14.4765C10.7528 14.1205 11.0413 13.8319 11.3973 13.8319H12.6027C12.9587 13.8319 13.2472 14.1205 13.2472 14.4765ZM8.64014 19.504C8.64014 19.86 8.35156 20.1486 7.99561 20.1486H6.7902C6.43425 20.1486 6.14567 19.86 6.14567 19.504V18.6282C6.14567 18.2722 6.43425 17.9837 6.7902 17.9837H7.99561C8.35156 17.9837 8.64014 18.2722 8.64014 18.6282V19.504ZM8.64014 15.3523C8.64014 15.7082 8.35156 15.9968 7.99561 15.9968H6.7902C6.43425 15.9968 6.14567 15.7082 6.14567 15.3523V14.4765C6.14567 14.1205 6.43425 13.8319 6.7902 13.8319H7.99561C8.35156 13.8319 8.64014 14.1205 8.64014 14.4765V15.3523ZM8.64014 11.2006C8.64014 11.5565 8.35156 11.8451 7.99561 11.8451H6.7902C6.43425 11.8451 6.14567 11.5565 6.14567 11.2006V10.3247C6.14567 9.96878 6.43425 9.6802 6.7902 9.6802H7.99561C8.35156 9.6802 8.64014 9.96878 8.64014 10.3247V11.2006ZM17.8542 19.504C17.8542 19.86 17.5657 20.1486 17.2097 20.1486H11.3973C11.0413 20.1486 10.7527 19.86 10.7527 19.504V18.6282C10.7527 18.2722 11.0413 17.9837 11.3973 17.9837H17.2097C17.5657 17.9837 17.8542 18.2722 17.8542 18.6282V19.504ZM17.8542 15.3523C17.8542 15.7082 17.5657 15.9968 17.2097 15.9968H16.0043C15.6483 15.9968 15.3598 15.7082 15.3598 15.3523V14.4765C15.3598 14.1205 15.6483 13.8319 16.0043 13.8319H17.2097C17.5657 13.8319 17.8542 14.1205 17.8542 14.4765V15.3523ZM17.8542 11.2006C17.8542 11.5565 17.5657 11.8451 17.2097 11.8451H16.0043C15.6483 11.8451 15.3598 11.5565 15.3598 11.2006V10.3247C15.3598 9.96878 15.6483 9.6802 16.0043 9.6802H17.2097C17.5657 9.6802 17.8542 9.96878 17.8542 10.3247V11.2006Z" fill="#1347FF"/>
</svg>
