<svg width="25" height="25" viewBox="0 0 25 25" fill="none" xmlns="http://www.w3.org/2000/svg">
<path d="M12.2235 16.6238C12.377 16.6238 12.5189 16.5962 12.6491 16.5409C12.7793 16.481 12.9049 16.3889 13.0258 16.2645L17.9444 11.2892C18.1305 11.1003 18.2235 10.8746 18.2235 10.612C18.2235 10.4277 18.1793 10.2619 18.091 10.1145C18.0026 9.96244 17.884 9.84266 17.7351 9.75513C17.5863 9.6676 17.4212 9.62384 17.2398 9.62384C16.9654 9.62384 16.7235 9.72749 16.5142 9.9348L11.9514 14.5992H12.5165L7.93281 9.9348C7.72351 9.72749 7.48398 9.62384 7.21421 9.62384C7.02816 9.62384 6.86072 9.6676 6.71188 9.75513C6.56305 9.84266 6.44444 9.96244 6.35607 10.1145C6.2677 10.2619 6.22351 10.4277 6.22351 10.612C6.22351 10.741 6.24677 10.8631 6.29328 10.9782C6.34444 11.0888 6.41653 11.1924 6.50956 11.2892L11.4212 16.2645C11.663 16.5041 11.9305 16.6238 12.2235 16.6238Z" fill="#061431"/>
</svg>
