<svg width="36" height="36" viewBox="0 0 36 36" fill="none" xmlns="http://www.w3.org/2000/svg">
<g clip-path="url(#clip0_17510_53488)">
<path d="M35.1722 4.44647C35.0028 4.03508 34.6002 3.76669 34.1559 3.76669H31.9559V1.56676C31.9559 1.12238 31.6875 0.719791 31.2761 0.550397C30.867 0.378803 30.394 0.473399 30.0772 0.787989L26.7773 4.08788C26.5727 4.29467 26.4561 4.57406 26.4561 4.86665V7.71116L14.6777 19.4874C14.2487 19.9164 14.2487 20.6137 14.6777 21.0427C14.8933 21.2583 15.1749 21.3661 15.4565 21.3661C15.7381 21.3661 16.0197 21.2583 16.2352 21.0449L28.0115 9.26651H30.856C31.1486 9.26651 31.4279 9.14991 31.6347 8.94532L34.9346 5.64543C35.247 5.32864 35.3416 4.85785 35.1722 4.44647Z" fill="black"/>
<path d="M23.5703 16.8666L19.8194 20.6307C19.6324 22.8878 17.7625 24.6654 15.4569 24.6654C13.026 24.6654 11.0571 22.6965 11.0571 20.2655C11.0571 17.9138 12.9072 16.0087 15.2281 15.8877L18.9218 12.1808C17.8571 11.7232 16.6889 11.4658 15.4569 11.4658C10.6039 11.4658 6.65723 15.4125 6.65723 20.2655C6.65723 25.1186 10.6039 29.0652 15.4569 29.0652C20.31 29.0652 24.2566 25.1186 24.2566 20.2655C24.2566 19.06 24.0103 17.9138 23.5703 16.8666Z" fill="black"/>
<path d="M28.4301 11.9918L25.1874 15.2455C25.9706 16.7568 26.4567 18.4486 26.4567 20.2657C26.4567 26.3309 21.5223 31.2653 15.4571 31.2653C9.39191 31.2653 4.45747 26.3309 4.45747 20.2657C4.45747 14.2005 9.39191 9.26607 15.4571 9.26607C17.2985 9.26607 19.0078 9.76325 20.5345 10.5662L23.7728 7.31693C21.3727 5.77258 18.5216 4.86621 15.4571 4.86621C6.95219 4.86621 0.0576172 11.7608 0.0576172 20.2657C0.0576172 28.7706 6.95219 35.6652 15.4571 35.6652C23.962 35.6652 30.8566 28.7706 30.8566 20.2657C30.8566 17.2166 29.959 14.3831 28.4301 11.9918Z" fill="black"/>
</g>
<defs>
<clipPath id="clip0_17510_53488">
<rect width="35.1998" height="35.1998" fill="white" transform="translate(0.0566406 0.46582)"/>
</clipPath>
</defs>
</svg>
