<svg width="37" height="37" viewBox="0 0 37 37" fill="none" xmlns="http://www.w3.org/2000/svg">
<g clip-path="url(#clip0_17510_53482)">
<path d="M19.5869 23.5813C20.7725 23.2901 21.6493 22.527 21.6493 21.65C21.6493 20.773 20.7725 20.0099 19.5869 19.7188V23.5813Z" fill="black"/>
<path d="M18.5563 7.22363C12.3015 7.22363 7.21289 12.3123 7.21289 18.567C7.21289 24.8217 12.3015 29.9104 18.5563 29.9104C24.811 29.9104 29.8996 24.8217 29.8996 18.567C29.8996 12.3123 24.811 7.22363 18.5563 7.22363ZM23.7123 21.6506C23.7123 23.6429 21.938 25.3088 19.5875 25.692V26.8167C19.5875 27.3867 19.1263 27.848 18.5563 27.848C17.9863 27.848 17.5251 27.3867 17.5251 26.8167V25.692C15.1745 25.3088 13.4002 23.6429 13.4002 21.6506C13.4002 21.0806 13.8614 20.6194 14.4314 20.6194C15.0014 20.6194 15.4626 21.0806 15.4626 21.6506C15.4626 22.5276 16.3395 23.2907 17.5251 23.5819V19.5047C15.1745 19.1215 13.4002 17.4556 13.4002 15.4633C13.4002 13.471 15.1745 11.8051 17.5251 11.4219V10.3072C17.5251 9.73726 17.9863 9.27603 18.5563 9.27603C19.1263 9.27603 19.5875 9.73726 19.5875 10.3072V11.4219C21.938 11.8051 23.7123 13.471 23.7123 15.4633C23.7123 16.0333 23.2511 16.4945 22.6811 16.4945C22.1111 16.4945 21.6499 16.0333 21.6499 15.4633C21.6499 14.5863 20.773 13.8232 19.5875 13.5321V17.6092C21.938 17.9923 23.7123 19.6582 23.7123 21.6506Z" fill="black"/>
<path d="M17.5253 13.5312C16.3398 13.8224 15.4629 14.5855 15.4629 15.4625C15.4629 16.3395 16.3398 17.1026 17.5253 17.3938V13.5312Z" fill="black"/>
<path d="M18.5565 0.967773C8.88983 0.967773 0.957031 8.90057 0.957031 18.5672C0.957031 28.2338 8.88983 36.1666 18.5565 36.1666C28.2231 36.1666 36.1559 28.2338 36.1559 18.5672C36.1559 8.90057 28.2231 0.967773 18.5565 0.967773ZM18.5565 31.973C11.1647 31.973 5.15064 25.959 5.15064 18.5672C5.15064 11.1754 11.1647 5.16139 18.5565 5.16139C25.9482 5.16139 31.9623 11.1754 31.9623 18.5672C31.9623 25.959 25.9482 31.973 18.5565 31.973Z" fill="black"/>
</g>
<defs>
<clipPath id="clip0_17510_53482">
<rect width="35.1988" height="35.1988" fill="white" transform="translate(0.957031 0.966797)"/>
</clipPath>
</defs>
</svg>
