<svg width="30" height="29" viewBox="0 0 30 29" fill="none" xmlns="http://www.w3.org/2000/svg">
<path d="M2.60547 0.666016H15.4062V5.58789H0.0566406V3.12695C0.0566406 1.76994 1.19999 0.666016 2.60547 0.666016Z" fill="#061431"/>
<path d="M26.5078 0.666016C27.9133 0.666016 29.0566 1.76994 29.0566 3.12695V5.58789H17.1055V0.666016H26.5078ZM26.5078 3.94727C26.977 3.94727 27.3574 3.57998 27.3574 3.12695C27.3574 2.67392 26.977 2.30664 26.5078 2.30664C26.0386 2.30664 25.6582 2.67392 25.6582 3.12695C25.6582 3.57998 26.0386 3.94727 26.5078 3.94727ZM23.1094 3.94727C23.5786 3.94727 23.959 3.57998 23.959 3.12695C23.959 2.67392 23.5786 2.30664 23.1094 2.30664C22.6402 2.30664 22.2598 2.67392 22.2598 3.12695C22.2598 3.57998 22.6402 3.94727 23.1094 3.94727ZM19.7109 3.94727C20.1801 3.94727 20.5605 3.57998 20.5605 3.12695C20.5605 2.67392 20.1801 2.30664 19.7109 2.30664C19.2417 2.30664 18.8613 2.67392 18.8613 3.12695C18.8613 3.57998 19.2417 3.94727 19.7109 3.94727Z" fill="#061431"/>
<path d="M29.0566 7.22852V26.2051C29.0566 27.5621 27.9133 28.666 26.5078 28.666H2.60547C1.19999 28.666 0.0566406 27.5621 0.0566406 26.2051V7.22852H29.0566ZM19.1102 21.8085C19.4421 22.1289 19.9798 22.1289 20.3116 21.8085L23.71 18.5273C24.042 18.2068 24.042 17.6877 23.71 17.3673L20.3116 14.0861C19.9798 13.7656 19.4421 13.7656 19.1102 14.0861C18.7783 14.4065 18.7783 14.9256 19.1102 15.246L21.908 17.9473L19.1102 20.6486C18.7783 20.969 18.7783 21.4881 19.1102 21.8085ZM12.0974 15.0329L15.4959 21.5954C15.7029 21.994 16.2058 22.1671 16.6359 21.9623C17.0557 21.7596 17.2249 21.267 17.0159 20.8616L13.6174 14.2991C13.405 13.893 12.8972 13.7328 12.4774 13.9322C12.0576 14.1349 11.8884 14.6276 12.0974 15.0329ZM5.45982 18.5272L8.85826 21.8085C9.19011 22.1289 9.7278 22.1289 10.0597 21.8085C10.3915 21.4881 10.3915 20.9689 10.0597 20.6485L7.26195 17.9473L10.0597 15.246C10.3915 14.9256 10.3915 14.4064 10.0597 14.086C9.7278 13.7656 9.19011 13.7656 8.85826 14.086L5.45982 17.3673C5.12796 17.6877 5.12796 18.2068 5.45982 18.5272Z" fill="#061431"/>
</svg>
