<svg width="239" height="867" viewBox="0 0 239 867" fill="none" xmlns="http://www.w3.org/2000/svg">
<path opacity="0.4" d="M261.07 0V457.229C261.07 464.627 259.123 471.894 255.424 478.3C251.725 484.707 246.404 490.026 239.997 493.724L34.1611 615.56C24.3629 621.36 16.2444 629.612 10.605 639.503C4.96568 649.394 1.99999 660.584 2.00006 671.97V867" stroke="url(#paint0_linear_13908_34411)" stroke-width="3" stroke-miterlimit="10"/>
<path d="M100.243 552.744L102.036 544.48L103.828 536.216C103.923 535.782 104.109 535.439 104.367 535.205C104.623 534.972 107.456 533.541 107.712 533.307C107.976 533.068 108.321 532.941 108.676 532.95L115.94 532.99L123.204 533.029C123.427 533.028 123.649 533.064 123.861 533.134C124.104 533.214 124.337 533.323 124.553 533.461L124.547 533.457L124.54 533.454C124.727 533.574 124.912 533.715 125.091 533.876C125.272 534.036 125.447 534.215 125.614 534.41L132.889 542.718L140.164 551.027C140.544 551.461 140.872 551.961 141.129 552.489C141.383 553.004 141.564 553.551 141.667 554.116L143.447 564.421L145.228 574.726C145.311 575.164 145.32 575.613 145.254 576.054C145.187 576.447 145.047 576.781 144.836 577.034L144.76 577.124L144.68 577.206L139.653 581.773L134.626 586.339C134.361 586.577 131.279 588.239 131.279 588.239C131.014 588.476 130.682 588.591 130.311 588.587C129.94 588.583 129.531 588.458 129.11 588.214L121.048 583.59L112.986 578.967C112.532 578.695 112.126 578.351 111.783 577.948C111.411 577.521 111.079 577.023 110.814 576.487L105.791 566.155L100.767 555.823C100.503 555.283 100.322 554.728 100.232 554.2C100.142 553.672 100.142 553.173 100.243 552.744Z" fill="#1347FF" stroke="white" stroke-width="0.6" stroke-miterlimit="10"/>
<path d="M121.196 535.35C121.383 535.47 121.568 535.611 121.748 535.772C121.928 535.931 122.103 536.111 122.27 536.305L129.546 544.614L136.821 552.922C137.205 553.366 137.53 553.858 137.786 554.385C138.039 554.9 138.22 555.448 138.323 556.012L140.103 566.316L141.884 576.621C141.968 577.059 141.977 577.508 141.91 577.949C141.844 578.341 141.703 578.676 141.492 578.928L141.416 579.018C141.391 579.048 141.363 579.074 141.336 579.1L136.309 583.667L131.282 588.234C131.017 588.471 130.684 588.586 130.314 588.582C129.943 588.577 129.533 588.453 129.113 588.209L121.051 583.585L112.989 578.961C112.535 578.69 112.128 578.346 111.785 577.942C111.413 577.516 111.082 577.018 110.817 576.482L105.793 566.15L100.77 555.818C100.506 555.278 100.325 554.723 100.235 554.195C100.145 553.668 100.146 553.168 100.247 552.739L102.04 544.475L103.832 536.211C103.927 535.777 104.113 535.434 104.37 535.2C104.634 534.962 104.979 534.835 105.334 534.844L112.598 534.883L119.863 534.922C120.086 534.922 120.308 534.957 120.52 535.027C120.763 535.108 120.995 535.218 121.212 535.354L121.205 535.351L121.196 535.35Z" fill="#1347FF" stroke="white" stroke-width="0.6" stroke-miterlimit="10"/>
<path d="M121.057 541.602C122.114 542.106 121.885 543.785 121.792 544.453C121.712 545.03 121.683 545.645 121.707 546.286C121.761 546.534 121.858 546.771 121.992 546.986L122.011 547.436C122.54 547.793 123.065 548.189 123.582 548.627C125.757 550.459 127.737 552.94 129.267 555.754L129.58 555.668C129.753 555.829 129.938 555.912 130.096 555.902C130.517 555.773 130.913 555.574 131.267 555.313C131.736 554.969 132.643 554.281 133.329 555.683C133.995 557.047 132.806 557.193 132.214 557.247C131.763 557.283 131.322 557.399 130.911 557.589C130.807 557.706 130.747 557.878 130.737 558.087L130.452 558.235C131.988 561.864 132.619 565.555 132.225 568.599L132.59 568.933C132.686 569.169 132.811 569.392 132.963 569.596C133.473 570.05 133.995 570.453 134.523 570.796C135.222 571.253 136.507 571.999 136.361 573.167C136.336 573.373 136.251 573.53 136.12 573.614C135.615 573.941 134.744 572.973 134.195 572.396C133.705 571.882 133.198 571.411 132.677 570.997C132.497 570.906 132.325 570.88 132.179 570.922L131.787 570.619C130.938 573.271 129.154 574.908 126.773 575.219L126.933 575.707C126.86 575.847 126.833 576.034 126.855 576.247C127.075 576.979 127.337 577.697 127.641 578.398C128.04 579.319 128.812 580.976 127.899 581.08C127.739 581.098 127.554 581.039 127.372 580.91C126.661 580.414 126.434 579.162 126.291 578.404C126.06 577.592 125.935 576.789 125.619 576.157C125.515 575.983 125.385 575.832 125.246 575.726L125.05 575.189C122.468 574.892 119.612 573.262 117.025 570.611L116.851 570.908C116.674 570.837 116.515 570.864 116.408 570.973C116.162 571.389 115.964 571.859 115.813 572.374C115.611 573.059 115.306 574.348 114.324 573.343C114.151 573.166 114.002 572.939 113.901 572.697C113.504 571.746 114.101 571.177 114.461 570.821C114.772 570.457 115.036 570.056 115.245 569.625C115.287 569.436 115.255 569.193 115.156 568.952C115.214 568.844 115.262 568.732 115.301 568.616C112.925 565.565 111.149 561.877 110.309 558.252L109.938 558.118C109.805 557.897 109.63 557.72 109.451 557.624C108.958 557.459 108.449 557.344 107.933 557.283C107.287 557.199 106.135 557.199 105.809 555.808C105.752 555.563 105.753 555.335 105.813 555.158C106.044 554.471 107.022 555.022 107.612 555.346C108.109 555.597 108.632 555.794 109.171 555.933C109.248 555.927 109.322 555.902 109.387 555.862C109.453 555.821 109.508 555.766 109.548 555.7L109.9 555.778C109.523 552.294 110.168 549.345 111.709 547.489L111.401 546.973C111.407 546.736 111.351 546.502 111.239 546.292C110.838 545.651 110.404 545.039 109.946 544.467C109.339 543.707 108.207 542.396 108.753 541.661C108.805 541.592 108.875 541.539 108.956 541.508C109.037 541.477 109.125 541.47 109.209 541.488C109.889 541.596 110.5 542.843 110.881 543.605C111.225 544.271 111.606 544.917 112.021 545.54C112.189 545.717 112.371 545.845 112.549 545.91L112.879 546.38C114.785 545.093 117.353 545.087 120.105 546.369C120.105 546.214 120.122 545.99 120.125 545.918C120.273 545.881 120.376 545.755 120.41 545.565C120.427 544.919 120.394 544.272 120.311 543.63C120.191 542.678 119.966 541.082 121.057 541.602ZM122.147 550.266L122.408 555.852L122.427 555.863C122.441 556.206 122.607 556.588 122.861 556.896C123.115 557.204 123.417 557.329 123.645 557.261L127.385 556.247C126.194 554.17 124.701 552.344 123.072 550.974C122.766 550.721 122.458 550.485 122.149 550.266H122.147ZM119.969 549.018C118.004 548.182 116.175 548.185 114.759 549.025L118.465 554.289C118.694 554.638 119.006 554.861 119.271 554.864C119.536 554.866 119.706 554.646 119.71 554.3L119.969 549.018ZM128.742 559.071L125.322 560.748V560.771C125.109 560.87 125.016 561.161 125.078 561.525C125.15 561.905 125.341 562.251 125.623 562.514V562.53L130.013 566.552C130.23 564.32 129.783 561.687 128.741 559.069L128.742 559.071ZM113.397 550.271C112.358 551.69 111.898 553.79 112.089 556.254L116.485 557.265V557.245C116.759 557.314 116.968 557.174 117.03 556.88C117.091 556.587 117 556.193 116.786 555.847L113.392 550.278L113.397 550.271ZM121.758 558.988L120.359 558.186L119.503 558.99L119.814 560.787L121.072 562.229L122.332 562.231L122.628 560.783L121.758 558.988ZM117.275 560.833C117.22 560.794 117.161 560.76 117.099 560.733L112.573 559.047C113.225 561.663 114.514 564.316 116.196 566.561L117.945 562.516C118.111 562.144 117.928 561.5 117.536 561.077C117.454 560.99 117.369 560.916 117.281 560.86L117.275 560.833ZM124.878 565.217C124.622 565.075 124.386 565.096 124.246 565.271C124.107 565.446 124.085 565.754 124.185 566.092V566.113L125.924 572.118C127.589 571.801 128.852 570.635 129.524 568.803L125.037 565.323C124.989 565.29 124.938 565.26 124.885 565.236L124.878 565.217ZM121.086 565.221C120.795 565.043 120.524 565.073 120.385 565.299L120.368 565.289L118.157 568.778L119.04 569.596C120.667 570.972 122.366 571.842 123.947 572.108L121.728 566.077C121.593 565.719 121.345 565.406 121.075 565.244L121.086 565.221Z" fill="white"/>
<defs>
<linearGradient id="paint0_linear_13908_34411" x1="169.282" y1="238.342" x2="169.282" y2="717.729" gradientUnits="userSpaceOnUse">
<stop offset="0.521991" stop-color="#1347FF"/>
<stop offset="1" stop-color="white"/>
</linearGradient>
</defs>
</svg>
