<svg width="593" height="880" viewBox="0 0 593 880" fill="none" xmlns="http://www.w3.org/2000/svg">
<g clip-path="url(#clip0_13908_34410)">
<path d="M593 880L339.722 732.332C321.664 721.932 306.786 699.454 306.786 678.654V261.536C306.786 231.78 292.091 203.91 267.483 187.088L-170 -64.9102" stroke="url(#paint0_linear_13908_34410)" stroke-width="2.7742" stroke-miterlimit="10"/>
<path d="M334.291 566.053C334.291 551.544 324.476 533.955 312.483 526.979C307.214 523.905 302.368 523.38 298.589 524.975C297.191 525.563 292.277 528.414 291.154 529.162C287.357 531.704 285.008 536.8 285.008 543.894C285.008 558.403 294.823 575.992 306.815 582.968C312.667 586.375 318.004 586.647 321.93 584.353C322.844 583.821 326.856 581.595 327.917 580.927C331.85 578.441 334.291 573.289 334.291 566.053Z" fill="#FC1683" stroke="white" stroke-width="0.6" stroke-miterlimit="10"/>
<path d="M321.634 584.58C330.472 579.823 331.003 563.439 322.821 547.984C314.638 532.529 300.84 523.856 292.002 528.612C283.165 533.368 282.633 549.752 290.816 565.207C298.999 580.663 312.796 589.336 321.634 584.58Z" fill="#FC1683" stroke="white" stroke-width="0.6" stroke-miterlimit="10"/>
<path fill-rule="evenodd" clip-rule="evenodd" d="M306.818 540.167C299.442 535.909 293.469 539.81 293.469 548.884C293.469 556.153 297.291 564.497 302.597 569.737C303.264 570.267 303.515 569.917 303.515 569.486C303.515 569.095 303.498 567.792 303.498 566.417C300.144 565.24 299.274 562.973 299.008 561.895C298.859 561.337 298.207 559.504 297.641 558.786C297.174 558.208 296.507 557.064 297.623 557.688C298.673 558.273 299.427 559.919 299.675 560.556C300.877 563.734 302.795 564.145 303.563 564.155C303.68 563.156 304.03 562.638 304.416 562.451C301.446 560.325 298.341 557.117 298.341 550.835C298.341 549.049 298.859 547.87 299.711 547.211C299.576 546.724 299.11 544.771 299.845 542.934C299.845 542.934 300.964 543.15 303.515 546.736C304.583 546.982 305.717 547.454 306.853 548.108C307.987 548.763 309.123 549.602 310.191 550.589C312.745 549.927 313.861 551.025 313.861 551.025C314.594 553.708 314.127 555.121 313.995 555.453C314.848 557.094 315.365 558.852 315.365 560.658C315.365 566.96 312.245 566.554 309.275 565.251C309.76 566.044 310.176 567.269 310.176 568.809C310.176 571.005 310.158 572.763 310.158 573.316C310.158 573.747 310.409 574.404 311.076 574.627C316.349 575.494 320.172 571.543 320.172 564.294C320.169 555.222 314.193 544.426 306.818 540.167Z" fill="white"/>
<mask id="mask0_13908_34410" style="mask-type:alpha" maskUnits="userSpaceOnUse" x="-23" y="289" width="235" height="266">
<rect x="-22.5" y="289.971" width="234" height="265" fill="#C4C4C4"/>
</mask>
<g mask="url(#mask0_13908_34410)">
<path opacity="0.4" d="M205.379 179.971V347.288C205.379 361.133 197.982 373.923 185.981 380.827L-56.8828 520.544" stroke="url(#paint1_linear_13908_34410)" stroke-width="3"/>
<path d="M126.718 397.465L126.719 397.464C127.782 396.854 128.758 395.774 129.469 394.509C130.18 393.245 130.61 391.825 130.61 390.557V353.297C130.61 352.026 130.177 351.198 129.564 350.817C128.956 350.44 128.069 350.44 127.019 351.049L127.018 351.049L91.6622 371.443L91.6616 371.444C90.5989 372.053 89.6229 373.134 88.9116 374.399C88.2007 375.663 87.7703 377.082 87.7703 378.351V415.633C87.7703 416.904 88.2035 417.732 88.8167 418.113C89.4246 418.49 90.3111 418.49 91.3619 417.881L91.3624 417.881L102.711 411.334L102.877 411.238L103.034 411.349L109.086 415.614L115.255 404.129L115.296 404.054L115.37 404.011L126.718 397.465Z" fill="#1BE99A" stroke="white" stroke-width="0.6"/>
<circle cx="110.096" cy="425.211" r="5.04168" fill="#1BE99A" stroke="white" stroke-width="0.6"/>
<path d="M117.517 389.013C121.831 380.85 121.552 372.196 116.893 369.684C112.234 367.172 104.961 371.754 100.647 379.917C96.3331 388.08 96.6127 396.734 101.271 399.246C105.93 401.758 113.204 397.176 117.517 389.013Z" fill="white"/>
<path d="M107.109 393.051C106.771 393.248 106.435 393.288 106.177 393.127L101.714 390.319C101.2 389.996 101.2 388.985 101.714 388.062C102.228 387.138 103.062 386.651 103.577 386.975L107.109 389.197L114.95 375.12C115.464 374.197 116.298 373.71 116.813 374.034C117.327 374.357 117.327 375.368 116.813 376.291L108.041 392.04C107.783 392.501 107.445 392.853 107.109 393.051Z" fill="#1BE99A"/>
</g>
</g>
<defs>
<linearGradient id="paint0_linear_13908_34410" x1="-244.059" y1="-186.001" x2="652.173" y2="855.711" gradientUnits="userSpaceOnUse">
<stop stop-color="#1347FF" stop-opacity="0.45"/>
<stop offset="1" stop-color="#1347FF" stop-opacity="0"/>
</linearGradient>
<linearGradient id="paint1_linear_13908_34410" x1="3.73237" y1="520.544" x2="249.101" y2="328.523" gradientUnits="userSpaceOnUse">
<stop stop-color="#1347FF"/>
<stop offset="1" stop-color="white" stop-opacity="0"/>
</linearGradient>
<clipPath id="clip0_13908_34410">
<rect width="601" height="880" fill="white" transform="translate(-8)"/>
</clipPath>
</defs>
</svg>
