<svg width="24" height="24" viewBox="0 0 24 24" fill="none" xmlns="http://www.w3.org/2000/svg">
<g clip-path="url(#clip0_21227_209391)">
<path d="M6.9357 10.7779C6.58815 10.9296 6.375 11.2794 6.375 11.6586V15.7506C6.375 16.3028 6.82272 16.7506 7.375 16.7506H16.625C17.1773 16.7506 17.625 16.3028 17.625 15.7506V11.6585C17.625 11.2794 17.4119 10.9296 17.0644 10.7778C15.4846 10.088 13.7464 9.72549 12 9.72549C10.2536 9.72549 8.51593 10.088 6.9357 10.7779Z" fill="#1347FF"/>
<path d="M22.5469 10.2073C22.5469 9.96159 22.6811 9.73554 22.8967 9.61791C23.3679 9.36095 23.362 8.68244 22.8864 8.43372L12.4635 2.98199C12.1732 2.83013 11.8268 2.83013 11.5365 2.98199L1.68708 8.13374C0.973103 8.50719 0.971354 9.52848 1.68405 9.90437L4.05176 11.1531C4.46817 11.3728 4.96875 11.0708 4.96875 10.6001C4.96875 10.3406 5.12253 10.0969 5.35345 9.97849C6.29233 9.49719 8.69156 8.31923 12 8.31923C15.3608 8.31923 17.7109 9.49401 18.6451 9.97781C18.8765 10.0976 19.0312 10.342 19.0312 10.6025C19.0312 11.0737 19.5308 11.377 19.9489 11.1596L20.0859 11.0884C20.5664 10.8385 21.1406 11.1872 21.1406 11.7287V15.6596C21.1406 15.8056 21.1087 15.9498 21.047 16.0821L19.9758 18.3801C19.8019 18.7531 19.8744 19.1947 20.1584 19.4926L21.12 20.5012C21.514 20.9145 22.1735 20.9145 22.5675 20.5012L23.5291 19.4926C23.8131 19.1947 23.8856 18.7531 23.7117 18.3801L22.6405 16.0821C22.5788 15.9498 22.5469 15.8056 22.5469 15.6596V10.2073Z" fill="#1347FF"/>
</g>
<defs>
<clipPath id="clip0_21227_209391">
<rect width="24" height="24" fill="white"/>
</clipPath>
</defs>
</svg>
