<svg width="24" height="25" viewBox="0 0 24 25" fill="none" xmlns="http://www.w3.org/2000/svg">
<path d="M7.16971 19.8164V6.1021C7.16971 5.79899 7.04959 5.5083 6.83579 5.29397C6.62199 5.07965 6.33201 4.95924 6.02964 4.95924H4.88958C4.58721 4.95924 4.29723 5.07965 4.08343 5.29397C3.86963 5.5083 3.74951 5.79899 3.74951 6.1021V19.8164C3.74951 20.1195 3.86963 20.4102 4.08343 20.6245C4.29723 20.8388 4.58721 20.9592 4.88958 20.9592H6.02964C6.33201 20.9592 6.62199 20.8388 6.83579 20.6245C7.04959 20.4102 7.16971 20.1195 7.16971 19.8164ZM19.7104 6.7821L16.1705 20.0278C16.0918 20.3202 15.9004 20.5693 15.6386 20.7204C15.3767 20.8715 15.0657 20.9121 14.7739 20.8335L13.6738 20.5364C13.3821 20.4574 13.1336 20.2656 12.9829 20.0031C12.8322 19.7406 12.7916 19.4289 12.87 19.1364L16.4099 5.89067C16.4751 5.64808 16.6182 5.43378 16.817 5.28091C17.0159 5.12803 17.2595 5.04511 17.5101 5.04495C17.6103 5.04455 17.71 5.05801 17.8065 5.08495L18.9067 5.3821C19.1984 5.46106 19.4469 5.65286 19.5976 5.91537C19.7483 6.17787 19.7889 6.48961 19.7104 6.7821ZM10.5899 20.9592H9.44984C9.14747 20.9592 8.85749 20.8388 8.64369 20.6245C8.42989 20.4102 8.30977 20.1195 8.30977 19.8164V6.1021C8.30977 5.79899 8.42989 5.5083 8.64369 5.29397C8.85749 5.07965 9.14747 4.95924 9.44984 4.95924H10.5899C10.8923 4.95924 11.1822 5.07965 11.3961 5.29397C11.6099 5.5083 11.73 5.79899 11.73 6.1021V19.8164C11.73 20.1195 11.6099 20.4102 11.3961 20.6245C11.1822 20.8388 10.8923 20.9592 10.5899 20.9592Z" fill="#1347FF"/>
</svg>
