<?xml version="1.0" encoding="UTF-8"?> <svg xmlns="http://www.w3.org/2000/svg" width="276" height="36" viewBox="0 0 276 36" fill="none"><path fill-rule="evenodd" clip-rule="evenodd" d="M0.293457 4.66888L4.60497 0.112305H44.3219L48.633 4.64899V30.6956L44.3219 35.2323H4.60466L0.293457 30.6956V4.66888ZM7.41946 5.07173L5.73475 6.80592V28.569L7.41946 30.3032H41.5593L43.1819 28.5661V6.8088L41.5593 5.07173H7.41946Z" fill="white"></path><path d="M30.7947 20.9543C33.035 20.9543 34.8511 18.2711 34.8511 14.9613C34.8511 11.6514 33.035 8.96826 30.7947 8.96826C28.5544 8.96826 26.7382 11.6514 26.7382 14.9613C26.7382 18.2711 28.5544 20.9543 30.7947 20.9543Z" fill="white"></path><path d="M18.7391 20.9548C20.9794 20.9548 22.7955 18.2716 22.7955 14.9618C22.7955 11.6519 20.9794 8.96875 18.7391 8.96875C16.4988 8.96875 14.6826 11.6519 14.6826 14.9618C14.6826 18.2716 16.4988 20.9548 18.7391 20.9548Z" fill="white"></path><path d="M144.707 10.9814L142.057 13.7L139.449 10.9814H129.975L126.817 14.3032V10.9814H121.855V35.2702H127.122V18.2706L129.924 15.4076H135.986L137.442 16.8689V35.2702H142.708V17.3191L144.605 15.4076H151.573L153.029 16.8689V35.2702H158.287V15.3057L154.079 10.9814H144.707Z" fill="white"></path><path d="M90.0172 10.9815H83.0493L72.5255 21.3886V0.0732422H67.2678V35.2703H72.5255V27.0211L76.691 23.2491L85.0051 35.2703H91.4735L80.4501 19.7829L90.0172 10.9815Z" fill="white"></path><path d="M98.6769 10.9814L94.4691 15.3057V30.946L98.6769 35.2702H113.061L117.269 30.946V15.3057L113.061 10.9814H98.6769ZM111.961 29.3828L110.555 30.844H101.183L99.786 29.3828V16.8689L101.191 15.4076H110.564L111.969 16.8689V29.3828H111.961Z" fill="white"></path><path d="M238.05 10.9814L233.842 15.3057V30.946L238.05 35.2702H252.434L256.642 30.946V15.3057L252.434 10.9814H238.05ZM251.333 29.3828L249.928 30.844H240.556L239.15 29.3828V16.8689L240.556 15.4076H249.928L251.333 16.8689V29.3828Z" fill="white"></path><path d="M269.704 10.9814L266.199 14.6005V10.9814H261.238V35.2702H266.504V18.8313L269.306 16.0108H275.775V10.9814H269.704Z" fill="white"></path><path d="M167.077 10.9814L162.869 15.3057V30.946L167.077 35.2702H198.166L202.374 30.946V15.3057L198.166 10.9814H167.077ZM197.057 29.3828L195.652 30.844H169.575L168.169 29.3828V16.8689L169.575 15.4076H195.652L197.057 16.8689V29.3828Z" fill="white"></path><path d="M224.055 13.9974L221.151 10.9815H211.127L206.919 15.3058V30.9461L211.127 35.2703H221.151L224.055 32.3053V35.2703H229.313V0.0732422H224.055V13.9974ZM224.055 28.0321L221.253 30.8441H213.633L212.177 29.3829V16.8689L213.633 15.4077H221.253L224.055 18.2707V28.0321Z" fill="white"></path></svg> 