<svg width="27" height="21" fill="none" xmlns="http://www.w3.org/2000/svg"><path opacity=".3" d="M14.82 20.335l-.085-2.51c2.215-.614 3.975-1.562 5.28-2.845 1.307-1.284 1.96-2.623 1.96-4.017 0-.67-.256-1.2-.767-1.59a9.434 9.434 0 00-1.618-1.255 9.941 9.941 0 01-1.704-1.34c-.454-.557-.681-1.282-.681-2.175 0-1.45.454-2.51 1.363-3.18A5.257 5.257 0 0121.804.335c1.42 0 2.64.474 3.663 1.423C26.489 2.65 27 4.018 27 5.858c0 3.236-1.05 6.193-3.151 8.87-2.045 2.678-5.054 4.547-9.029 5.607zm-14.735 0L0 17.825c2.271-.614 4.032-1.562 5.28-2.845 1.307-1.284 1.96-2.623 1.96-4.017 0-.67-.227-1.2-.682-1.59-.454-.446-1.022-.865-1.703-1.255a7.59 7.59 0 01-1.618-1.34c-.455-.557-.682-1.282-.682-2.175 0-1.45.454-2.51 1.363-3.18C4.827.698 5.877.335 7.069.335c1.42 0 2.64.474 3.663 1.423 1.022.892 1.533 2.26 1.533 4.1 0 3.236-1.05 6.193-3.151 8.87-2.045 2.678-5.054 4.547-9.029 5.607z" fill="#8FA2AD"/></svg>