<svg width="36" height="37" viewBox="0 0 36 37" fill="none" xmlns="http://www.w3.org/2000/svg">
<mask id="mask0_3644_8855" style="mask-type:luminance" maskUnits="userSpaceOnUse" x="2" y="3" width="32" height="32">
<path d="M33.1988 3H2V34.1988H33.1988V3Z" fill="white"/>
</mask>
<g mask="url(#mask0_3644_8855)">
<path d="M18.513 23.0445C19.5638 22.7864 20.341 22.11 20.341 21.3327C20.341 20.5554 19.5638 19.879 18.513 19.621V23.0445Z" fill="black"/>
<path d="M17.5995 8.54578C12.0555 8.54578 7.54517 13.0562 7.54517 18.6001C7.54517 24.144 12.0555 28.6544 17.5995 28.6544C23.1435 28.6544 27.6538 24.144 27.6538 18.6001C27.6538 13.0562 23.1435 8.54578 17.5995 8.54578ZM22.1696 21.3333C22.1696 23.0992 20.597 24.5757 18.5135 24.9154V25.9123C18.5135 26.4175 18.1047 26.8264 17.5995 26.8264C17.0942 26.8264 16.6854 26.4175 16.6854 25.9123V24.9154C14.602 24.5757 13.0293 23.0992 13.0293 21.3333C13.0293 20.828 13.4382 20.4192 13.9434 20.4192C14.4485 20.4192 14.8574 20.828 14.8574 21.3333C14.8574 22.1106 15.6346 22.787 16.6854 23.0451V19.4312C14.602 19.0916 13.0293 17.615 13.0293 15.8491C13.0293 14.0832 14.602 12.6066 16.6854 12.267V11.2789C16.6854 10.7738 17.0942 10.3649 17.5995 10.3649C18.1047 10.3649 18.5135 10.7738 18.5135 11.2789V12.267C20.597 12.6066 22.1696 14.0832 22.1696 15.8491C22.1696 16.3543 21.7608 16.7631 21.2556 16.7631C20.7504 16.7631 20.3416 16.3543 20.3416 15.8491C20.3416 15.0718 19.5643 14.3954 18.5135 14.1374V17.7511C20.597 18.0907 22.1696 19.5673 22.1696 21.3333Z" fill="black"/>
<path d="M16.6854 14.1371C15.6347 14.3952 14.8574 15.0716 14.8574 15.8489C14.8574 16.6262 15.6347 17.3026 16.6854 17.5607V14.1371Z" fill="black"/>
<path d="M17.5996 3.00098C9.03154 3.00098 2.00023 10.0323 2.00023 18.6004C2.00023 27.1685 9.03154 34.1998 17.5996 34.1998C26.1677 34.1998 33.199 27.1685 33.199 18.6004C33.199 10.0323 26.1677 3.00098 17.5996 3.00098ZM17.5996 30.4828C11.0479 30.4828 5.71727 25.1522 5.71727 18.6004C5.71727 12.0486 11.0479 6.71803 17.5996 6.71803C24.1514 6.71803 29.482 12.0486 29.482 18.6004C29.482 25.1522 24.1514 30.4828 17.5996 30.4828Z" fill="black"/>
</g>
</svg>
