<svg width="29" height="29" viewBox="0 0 29 29" fill="none" xmlns="http://www.w3.org/2000/svg">
<path d="M6.2849 18.1298C6.2849 19.7682 4.94644 21.1067 3.30798 21.1067C1.66952 21.1067 0.331055 19.7682 0.331055 18.1298C0.331055 16.4913 1.66952 15.1528 3.30798 15.1528H6.2849V18.1298Z" fill="white"/>
<path d="M7.78516 18.1298C7.78516 16.4913 9.12362 15.1528 10.7621 15.1528C12.4005 15.1528 13.739 16.4913 13.739 18.1298V25.5836C13.739 27.2221 12.4005 28.5605 10.7621 28.5605C9.12362 28.5605 7.78516 27.2221 7.78516 25.5836V18.1298Z" fill="white"/>
<path d="M10.7621 6.17601C9.12362 6.17601 7.78516 4.83755 7.78516 3.19909C7.78516 1.56063 9.12362 0.222168 10.7621 0.222168C12.4005 0.222168 13.739 1.56063 13.739 3.19909V6.17601H10.7621Z" fill="white"/>
<path d="M10.7618 7.67627C12.4003 7.67627 13.7387 9.01473 13.7387 10.6532C13.7387 12.2917 12.4003 13.6301 10.7618 13.6301H3.30798C1.66952 13.6301 0.331055 12.2917 0.331055 10.6532C0.331055 9.01473 1.66952 7.67627 3.30798 7.67627H10.7618Z" fill="white"/>
<path d="M22.7158 10.6532C22.7158 9.01473 24.0543 7.67627 25.6927 7.67627C27.3312 7.67627 28.6697 9.01473 28.6697 10.6532C28.6697 12.2917 27.3312 13.6301 25.6927 13.6301H22.7158V10.6532Z" fill="white"/>
<path d="M21.2156 10.6529C21.2156 12.2914 19.8771 13.6299 18.2386 13.6299C16.6002 13.6299 15.2617 12.2914 15.2617 10.6529V3.19909C15.2617 1.56063 16.6002 0.222168 18.2386 0.222168C19.8771 0.222168 21.2156 1.56063 21.2156 3.19909V10.6529Z" fill="white"/>
<path d="M18.2386 22.6069C19.8771 22.6069 21.2156 23.9454 21.2156 25.5839C21.2156 27.2223 19.8771 28.5608 18.2386 28.5608C16.6002 28.5608 15.2617 27.2223 15.2617 25.5839V22.6069H18.2386Z" fill="white"/>
<path d="M18.2386 21.1067C16.6002 21.1067 15.2617 19.7682 15.2617 18.1298C15.2617 16.4913 16.6002 15.1528 18.2386 15.1528H25.6925C27.3309 15.1528 28.6694 16.4913 28.6694 18.1298C28.6694 19.7682 27.3309 21.1067 25.6925 21.1067H18.2386Z" fill="white"/>
</svg>
