<svg width="25" height="24" viewBox="0 0 25 24" fill="none" xmlns="http://www.w3.org/2000/svg">
<path d="M8.20801 12C8.20801 12.1535 8.23565 12.2953 8.29093 12.4256C8.35082 12.5558 8.44295 12.6814 8.56734 12.8023L13.5427 17.7209C13.7315 17.907 13.9573 18 14.2199 18C14.4041 18 14.57 17.9558 14.7174 17.8674C14.8694 17.7791 14.9892 17.6605 15.0767 17.5116C15.1642 17.3628 15.208 17.1977 15.208 17.0163C15.208 16.7419 15.1044 16.5 14.897 16.2907L10.2327 11.7279L10.2327 12.293L14.8971 7.7093C15.1044 7.5 15.208 7.26047 15.208 6.9907C15.208 6.80465 15.1642 6.63721 15.0767 6.48837C14.9892 6.33953 14.8694 6.22093 14.7174 6.13256C14.57 6.04419 14.4041 6 14.2199 6C14.0909 6 13.9688 6.02326 13.8536 6.06977C13.7431 6.12093 13.6394 6.19302 13.5427 6.28605L8.56734 11.1977C8.32778 11.4395 8.20801 11.707 8.20801 12Z" fill="#1347FF"/>
</svg>
