<svg width="25" height="24" viewBox="0 0 25 24" fill="none" xmlns="http://www.w3.org/2000/svg">
<path d="M16.208 12C16.208 11.8465 16.1804 11.7047 16.1251 11.5744C16.0652 11.4442 15.9731 11.3186 15.8487 11.1977L10.8734 6.27907C10.6845 6.09302 10.4587 6 10.1962 6C10.0119 6 9.84605 6.04419 9.69863 6.13256C9.54661 6.22093 9.42683 6.33953 9.3393 6.48837C9.25177 6.63721 9.20801 6.80233 9.20801 6.98372C9.20801 7.25814 9.31166 7.5 9.51897 7.7093L14.1833 12.2721L14.1833 11.707L9.51897 16.2907C9.31166 16.5 9.20801 16.7395 9.20801 17.0093C9.20801 17.1953 9.25177 17.3628 9.3393 17.5116C9.42683 17.6605 9.54661 17.7791 9.69863 17.8674C9.84605 17.9558 10.0119 18 10.1962 18C10.3252 18 10.4472 17.9767 10.5624 17.9302C10.673 17.8791 10.7766 17.807 10.8734 17.714L15.8487 12.8023C16.0882 12.5605 16.208 12.293 16.208 12Z" fill="#1347FF"/>
</svg>
